<?xml version="1.0" encoding="utf-8" standalone="no"?>
<!DOCTYPE svg PUBLIC "-//W3C//DTD SVG 1.1//EN"
  "http://www.w3.org/Graphics/SVG/1.1/DTD/svg11.dtd">
<svg xmlns:xlink="http://www.w3.org/1999/xlink" width="348.84pt" height="236.16pt" viewBox="0 0 348.84 236.16" xmlns="http://www.w3.org/2000/svg" version="1.1">
 <metadata>
  <rdf:RDF xmlns:dc="http://purl.org/dc/elements/1.1/" xmlns:cc="http://creativecommons.org/ns#" xmlns:rdf="http://www.w3.org/1999/02/22-rdf-syntax-ns#">
   <cc:Work>
    <dc:type rdf:resource="http://purl.org/dc/dcmitype/StillImage"/>
    <dc:date>2025-02-24T16:15:09.606769</dc:date>
    <dc:format>image/svg+xml</dc:format>
    <dc:creator>
     <cc:Agent>
      <dc:title>Matplotlib v3.9.2, https://matplotlib.org/</dc:title>
     </cc:Agent>
    </dc:creator>
   </cc:Work>
  </rdf:RDF>
 </metadata>
 <defs>
  <style type="text/css">*{stroke-linejoin: round; stroke-linecap: butt}</style>
 </defs>
 <g id="figure_1">
  <g id="patch_1">
   <path d="M 0 236.16 
L 348.84 236.16 
L 348.84 0 
L 0 0 
z
" style="fill: #ffffff"/>
  </g>
  <g id="axes_1">
   <g id="patch_2">
    <path d="M 7.2 34.92 
L 62.64 34.92 
L 62.64 7.2 
L 7.2 7.2 
z
" style="fill: #ffffff"/>
   </g>
   <g id="QuadMesh_1">
    <path d="M 7.2 7.2 
L 34.92 7.2 
L 34.92 34.92 
L 7.2 34.92 
L 7.2 7.2 
" clip-path="url(#pd20f03678f)" style="fill: #084081"/>
    <path d="M 34.92 7.2 
L 62.64 7.2 
L 62.64 34.92 
L 34.92 34.92 
L 34.92 7.2 
" clip-path="url(#pd20f03678f)" style="fill: #084081"/>
   </g>
   <g id="matplotlib.axis_1"/>
   <g id="matplotlib.axis_2"/>
  </g>
  <g id="axes_2">
   <g id="patch_3">
    <path d="M 63 34.92 
L 118.44 34.92 
L 118.44 7.2 
L 63 7.2 
z
" style="fill: #ffffff"/>
   </g>
   <g id="QuadMesh_2">
    <path d="M 63 7.2 
L 90.72 7.2 
L 90.72 34.92 
L 63 34.92 
L 63 7.2 
" clip-path="url(#p54ca461c0f)" style="fill: #75c8c6"/>
    <path d="M 90.72 7.2 
L 118.44 7.2 
L 118.44 34.92 
L 90.72 34.92 
L 90.72 7.2 
" clip-path="url(#p54ca461c0f)" style="fill: #b3e1ba"/>
   </g>
   <g id="matplotlib.axis_3"/>
   <g id="matplotlib.axis_4"/>
  </g>
  <g id="axes_3">
   <g id="patch_4">
    <path d="M 118.8 34.92 
L 174.24 34.92 
L 174.24 7.2 
L 118.8 7.2 
z
" style="fill: #ffffff"/>
   </g>
   <g id="QuadMesh_3">
    <path d="M 118.8 7.2 
L 146.52 7.2 
L 146.52 34.92 
L 118.8 34.92 
L 118.8 7.2 
" clip-path="url(#p8c9137d6fc)" style="fill: #d0edca"/>
    <path d="M 146.52 7.2 
L 174.24 7.2 
L 174.24 34.92 
L 146.52 34.92 
L 146.52 7.2 
" clip-path="url(#p8c9137d6fc)" style="fill: #ebf7e5"/>
   </g>
   <g id="matplotlib.axis_5"/>
   <g id="matplotlib.axis_6"/>
  </g>
  <g id="axes_4">
   <g id="patch_5">
    <path d="M 174.6 34.92 
L 230.04 34.92 
L 230.04 7.2 
L 174.6 7.2 
z
" style="fill: #ffffff"/>
   </g>
   <g id="QuadMesh_4">
    <path d="M 174.6 7.2 
L 202.32 7.2 
L 202.32 34.92 
L 174.6 34.92 
L 174.6 7.2 
" clip-path="url(#pad3be815e9)" style="fill: #e4f5df"/>
    <path d="M 202.32 7.2 
L 230.04 7.2 
L 230.04 34.92 
L 202.32 34.92 
L 202.32 7.2 
" clip-path="url(#pad3be815e9)" style="fill: #f2faeb"/>
   </g>
   <g id="matplotlib.axis_7"/>
   <g id="matplotlib.axis_8"/>
  </g>
  <g id="axes_5">
   <g id="patch_6">
    <path d="M 230.4 34.92 
L 285.84 34.92 
L 285.84 7.2 
L 230.4 7.2 
z
" style="fill: #ffffff"/>
   </g>
   <g id="QuadMesh_5">
    <path d="M 230.4 7.2 
L 258.12 7.2 
L 258.12 34.92 
L 230.4 34.92 
L 230.4 7.2 
" clip-path="url(#p6ab5247dd7)" style="fill: #f3faec"/>
    <path d="M 258.12 7.2 
L 285.84 7.2 
L 285.84 34.92 
L 258.12 34.92 
L 258.12 7.2 
" clip-path="url(#p6ab5247dd7)" style="fill: #f6fcef"/>
   </g>
   <g id="matplotlib.axis_9"/>
   <g id="matplotlib.axis_10"/>
  </g>
  <g id="axes_6">
   <g id="patch_7">
    <path d="M 286.2 34.92 
L 341.64 34.92 
L 341.64 7.2 
L 286.2 7.2 
z
" style="fill: #ffffff"/>
   </g>
   <g id="QuadMesh_6">
    <path d="M 286.2 7.2 
L 313.92 7.2 
L 313.92 34.92 
L 286.2 34.92 
L 286.2 7.2 
" clip-path="url(#p1b8e6aad29)" style="fill: #f7fcf0"/>
    <path d="M 313.92 7.2 
L 341.64 7.2 
L 341.64 34.92 
L 313.92 34.92 
L 313.92 7.2 
" clip-path="url(#p1b8e6aad29)" style="fill: #f7fcf0"/>
   </g>
   <g id="matplotlib.axis_11"/>
   <g id="matplotlib.axis_12"/>
  </g>
  <g id="axes_7">
   <g id="patch_8">
    <path d="M 7.2 62.64 
L 62.64 62.64 
L 62.64 34.92 
L 7.2 34.92 
z
" style="fill: #ffffff"/>
   </g>
   <g id="QuadMesh_7">
    <path d="M 7.2 34.92 
L 34.92 34.92 
L 34.92 62.64 
L 7.2 62.64 
L 7.2 34.92 
" clip-path="url(#pcdd4d43836)" style="fill: #084081"/>
    <path d="M 34.92 34.92 
L 62.64 34.92 
L 62.64 62.64 
L 34.92 62.64 
L 34.92 34.92 
" clip-path="url(#pcdd4d43836)" style="fill: #084081"/>
   </g>
   <g id="matplotlib.axis_13"/>
   <g id="matplotlib.axis_14"/>
  </g>
  <g id="axes_8">
   <g id="patch_9">
    <path d="M 63 62.64 
L 118.44 62.64 
L 118.44 34.92 
L 63 34.92 
z
" style="fill: #ffffff"/>
   </g>
   <g id="QuadMesh_8">
    <path d="M 63 34.92 
L 90.72 34.92 
L 90.72 62.64 
L 63 62.64 
L 63 34.92 
" clip-path="url(#pb3c3a3992b)" style="fill: #084688"/>
    <path d="M 90.72 34.92 
L 118.44 34.92 
L 118.44 62.64 
L 90.72 62.64 
L 90.72 34.92 
" clip-path="url(#pb3c3a3992b)" style="fill: #3699c5"/>
   </g>
   <g id="matplotlib.axis_15"/>
   <g id="matplotlib.axis_16"/>
  </g>
  <g id="axes_9">
   <g id="patch_10">
    <path d="M 118.8 62.64 
L 174.24 62.64 
L 174.24 34.92 
L 118.8 34.92 
z
" style="fill: #ffffff"/>
   </g>
   <g id="QuadMesh_9">
    <path d="M 118.8 34.92 
L 146.52 34.92 
L 146.52 62.64 
L 118.8 62.64 
L 118.8 34.92 
" clip-path="url(#pfb173329a9)" style="fill: #084e90"/>
    <path d="M 146.52 34.92 
L 174.24 34.92 
L 174.24 62.64 
L 146.52 62.64 
L 146.52 34.92 
" clip-path="url(#pfb173329a9)" style="fill: #83cfc1"/>
   </g>
   <g id="matplotlib.axis_17"/>
   <g id="matplotlib.axis_18"/>
  </g>
  <g id="axes_10">
   <g id="patch_11">
    <path d="M 174.6 62.64 
L 230.04 62.64 
L 230.04 34.92 
L 174.6 34.92 
z
" style="fill: #ffffff"/>
   </g>
   <g id="QuadMesh_10">
    <path d="M 174.6 34.92 
L 202.32 34.92 
L 202.32 62.64 
L 174.6 62.64 
L 174.6 34.92 
" clip-path="url(#pef3a4b2955)" style="fill: #0864a8"/>
    <path d="M 202.32 34.92 
L 230.04 34.92 
L 230.04 62.64 
L 202.32 62.64 
L 202.32 34.92 
" clip-path="url(#pef3a4b2955)" style="fill: #bbe4bd"/>
   </g>
   <g id="matplotlib.axis_19"/>
   <g id="matplotlib.axis_20"/>
  </g>
  <g id="axes_11">
   <g id="patch_12">
    <path d="M 230.4 62.64 
L 285.84 62.64 
L 285.84 34.92 
L 230.4 34.92 
z
" style="fill: #ffffff"/>
   </g>
   <g id="QuadMesh_11">
    <path d="M 230.4 34.92 
L 258.12 34.92 
L 258.12 62.64 
L 230.4 62.64 
L 230.4 34.92 
" clip-path="url(#p6313292e8d)" style="fill: #3ea1c9"/>
    <path d="M 258.12 34.92 
L 285.84 34.92 
L 285.84 62.64 
L 258.12 62.64 
L 258.12 34.92 
" clip-path="url(#p6313292e8d)" style="fill: #ddf2d8"/>
   </g>
   <g id="matplotlib.axis_21"/>
   <g id="matplotlib.axis_22"/>
  </g>
  <g id="axes_12">
   <g id="patch_13">
    <path d="M 286.2 62.64 
L 341.64 62.64 
L 341.64 34.92 
L 286.2 34.92 
z
" style="fill: #ffffff"/>
   </g>
   <g id="QuadMesh_12">
    <path d="M 286.2 34.92 
L 313.92 34.92 
L 313.92 62.64 
L 286.2 62.64 
L 286.2 34.92 
" clip-path="url(#peb37ae9130)" style="fill: #f7fcf0"/>
    <path d="M 313.92 34.92 
L 341.64 34.92 
L 341.64 62.64 
L 313.92 62.64 
L 313.92 34.92 
" clip-path="url(#peb37ae9130)" style="fill: #f7fcf0"/>
   </g>
   <g id="matplotlib.axis_23"/>
   <g id="matplotlib.axis_24"/>
  </g>
  <g id="axes_13">
   <g id="patch_14">
    <path d="M 7.2 90.36 
L 62.64 90.36 
L 62.64 62.64 
L 7.2 62.64 
z
" style="fill: #ffffff"/>
   </g>
   <g id="QuadMesh_13">
    <path d="M 7.2 62.64 
L 34.92 62.64 
L 34.92 90.36 
L 7.2 90.36 
L 7.2 62.64 
" clip-path="url(#p2a3f8f03be)" style="fill: #084081"/>
    <path d="M 34.92 62.64 
L 62.64 62.64 
L 62.64 90.36 
L 34.92 90.36 
L 34.92 62.64 
" clip-path="url(#p2a3f8f03be)" style="fill: #084081"/>
   </g>
   <g id="matplotlib.axis_25"/>
   <g id="matplotlib.axis_26"/>
  </g>
  <g id="axes_14">
   <g id="patch_15">
    <path d="M 63 90.36 
L 118.44 90.36 
L 118.44 62.64 
L 63 62.64 
z
" style="fill: #ffffff"/>
   </g>
   <g id="QuadMesh_14">
    <path d="M 63 62.64 
L 90.72 62.64 
L 90.72 90.36 
L 63 90.36 
L 63 62.64 
" clip-path="url(#p93316ded17)" style="fill: #084081"/>
    <path d="M 90.72 62.64 
L 118.44 62.64 
L 118.44 90.36 
L 90.72 90.36 
L 90.72 62.64 
" clip-path="url(#p93316ded17)" style="fill: #3496c3"/>
   </g>
   <g id="matplotlib.axis_27"/>
   <g id="matplotlib.axis_28"/>
  </g>
  <g id="axes_15">
   <g id="patch_16">
    <path d="M 118.8 90.36 
L 174.24 90.36 
L 174.24 62.64 
L 118.8 62.64 
z
" style="fill: #ffffff"/>
   </g>
   <g id="QuadMesh_15">
    <path d="M 118.8 62.64 
L 146.52 62.64 
L 146.52 90.36 
L 118.8 90.36 
L 118.8 62.64 
" clip-path="url(#pc7010add60)" style="fill: #084081"/>
    <path d="M 146.52 62.64 
L 174.24 62.64 
L 174.24 90.36 
L 146.52 90.36 
L 146.52 62.64 
" clip-path="url(#pc7010add60)" style="fill: #7accc4"/>
   </g>
   <g id="matplotlib.axis_29"/>
   <g id="matplotlib.axis_30"/>
  </g>
  <g id="axes_16">
   <g id="patch_17">
    <path d="M 174.6 90.36 
L 230.04 90.36 
L 230.04 62.64 
L 174.6 62.64 
z
" style="fill: #ffffff"/>
   </g>
   <g id="QuadMesh_16">
    <path d="M 174.6 62.64 
L 202.32 62.64 
L 202.32 90.36 
L 174.6 90.36 
L 174.6 62.64 
" clip-path="url(#p6e9cf26ab0)" style="fill: #084485"/>
    <path d="M 202.32 62.64 
L 230.04 62.64 
L 230.04 90.36 
L 202.32 90.36 
L 202.32 62.64 
" clip-path="url(#p6e9cf26ab0)" style="fill: #b2e1b9"/>
   </g>
   <g id="matplotlib.axis_31"/>
   <g id="matplotlib.axis_32"/>
  </g>
  <g id="axes_17">
   <g id="patch_18">
    <path d="M 230.4 90.36 
L 285.84 90.36 
L 285.84 62.64 
L 230.4 62.64 
z
" style="fill: #ffffff"/>
   </g>
   <g id="QuadMesh_17">
    <path d="M 230.4 62.64 
L 258.12 62.64 
L 258.12 90.36 
L 230.4 90.36 
L 230.4 62.64 
" clip-path="url(#pa6c69cf8f9)" style="fill: #1d7eb7"/>
    <path d="M 258.12 62.64 
L 285.84 62.64 
L 285.84 90.36 
L 258.12 90.36 
L 258.12 62.64 
" clip-path="url(#pa6c69cf8f9)" style="fill: #daf0d4"/>
   </g>
   <g id="matplotlib.axis_33"/>
   <g id="matplotlib.axis_34"/>
  </g>
  <g id="axes_18">
   <g id="patch_19">
    <path d="M 286.2 90.36 
L 341.64 90.36 
L 341.64 62.64 
L 286.2 62.64 
z
" style="fill: #ffffff"/>
   </g>
   <g id="QuadMesh_18">
    <path d="M 286.2 62.64 
L 313.92 62.64 
L 313.92 90.36 
L 286.2 90.36 
L 286.2 62.64 
" clip-path="url(#pcbddaca0e3)" style="fill: #f7fcf0"/>
    <path d="M 313.92 62.64 
L 341.64 62.64 
L 341.64 90.36 
L 313.92 90.36 
L 313.92 62.64 
" clip-path="url(#pcbddaca0e3)" style="fill: #f7fcf0"/>
   </g>
   <g id="matplotlib.axis_35"/>
   <g id="matplotlib.axis_36"/>
  </g>
  <g id="axes_19">
   <g id="patch_20">
    <path d="M 7.2 118.08 
L 62.64 118.08 
L 62.64 90.36 
L 7.2 90.36 
z
" style="fill: #ffffff"/>
   </g>
   <g id="QuadMesh_19">
    <path d="M 7.2 90.36 
L 34.92 90.36 
L 34.92 118.08 
L 7.2 118.08 
L 7.2 90.36 
" clip-path="url(#pd0f2a8defb)" style="fill: #084081"/>
    <path d="M 34.92 90.36 
L 62.64 90.36 
L 62.64 118.08 
L 34.92 118.08 
L 34.92 90.36 
" clip-path="url(#pd0f2a8defb)" style="fill: #084182"/>
   </g>
   <g id="matplotlib.axis_37"/>
   <g id="matplotlib.axis_38"/>
  </g>
  <g id="axes_20">
   <g id="patch_21">
    <path d="M 63 118.08 
L 118.44 118.08 
L 118.44 90.36 
L 63 90.36 
z
" style="fill: #ffffff"/>
   </g>
   <g id="QuadMesh_20">
    <path d="M 63 90.36 
L 90.72 90.36 
L 90.72 118.08 
L 63 118.08 
L 63 90.36 
" clip-path="url(#p2f16e9296c)" style="fill: #084081"/>
    <path d="M 90.72 90.36 
L 118.44 90.36 
L 118.44 118.08 
L 90.72 118.08 
L 90.72 90.36 
" clip-path="url(#p2f16e9296c)" style="fill: #3c9fc8"/>
   </g>
   <g id="matplotlib.axis_39"/>
   <g id="matplotlib.axis_40"/>
  </g>
  <g id="axes_21">
   <g id="patch_22">
    <path d="M 118.8 118.08 
L 174.24 118.08 
L 174.24 90.36 
L 118.8 90.36 
z
" style="fill: #ffffff"/>
   </g>
   <g id="QuadMesh_21">
    <path d="M 118.8 90.36 
L 146.52 90.36 
L 146.52 118.08 
L 118.8 118.08 
L 118.8 90.36 
" clip-path="url(#p09ed1c934d)" style="fill: #084081"/>
    <path d="M 146.52 90.36 
L 174.24 90.36 
L 174.24 118.08 
L 146.52 118.08 
L 146.52 90.36 
" clip-path="url(#p09ed1c934d)" style="fill: #92d5bc"/>
   </g>
   <g id="matplotlib.axis_41"/>
   <g id="matplotlib.axis_42"/>
  </g>
  <g id="axes_22">
   <g id="patch_23">
    <path d="M 174.6 118.08 
L 230.04 118.08 
L 230.04 90.36 
L 174.6 90.36 
z
" style="fill: #ffffff"/>
   </g>
   <g id="QuadMesh_22">
    <path d="M 174.6 90.36 
L 202.32 90.36 
L 202.32 118.08 
L 174.6 118.08 
L 174.6 90.36 
" clip-path="url(#pef3534ae58)" style="fill: #085da0"/>
    <path d="M 202.32 90.36 
L 230.04 90.36 
L 230.04 118.08 
L 202.32 118.08 
L 202.32 90.36 
" clip-path="url(#pef3534ae58)" style="fill: #c7e9c3"/>
   </g>
   <g id="matplotlib.axis_43"/>
   <g id="matplotlib.axis_44"/>
  </g>
  <g id="axes_23">
   <g id="patch_24">
    <path d="M 230.4 118.08 
L 285.84 118.08 
L 285.84 90.36 
L 230.4 90.36 
z
" style="fill: #ffffff"/>
   </g>
   <g id="QuadMesh_23">
    <path d="M 230.4 90.36 
L 258.12 90.36 
L 258.12 118.08 
L 230.4 118.08 
L 230.4 90.36 
" clip-path="url(#pbd49f0e97c)" style="fill: #aedfb8"/>
    <path d="M 258.12 90.36 
L 285.84 90.36 
L 285.84 118.08 
L 258.12 118.08 
L 258.12 90.36 
" clip-path="url(#pbd49f0e97c)" style="fill: #f0f9e9"/>
   </g>
   <g id="matplotlib.axis_45"/>
   <g id="matplotlib.axis_46"/>
  </g>
  <g id="axes_24">
   <g id="patch_25">
    <path d="M 286.2 118.08 
L 341.64 118.08 
L 341.64 90.36 
L 286.2 90.36 
z
" style="fill: #ffffff"/>
   </g>
   <g id="QuadMesh_24">
    <path d="M 286.2 90.36 
L 313.92 90.36 
L 313.92 118.08 
L 286.2 118.08 
L 286.2 90.36 
" clip-path="url(#p8c998e7ff6)" style="fill: #f7fcf0"/>
    <path d="M 313.92 90.36 
L 341.64 90.36 
L 341.64 118.08 
L 313.92 118.08 
L 313.92 90.36 
" clip-path="url(#p8c998e7ff6)" style="fill: #f7fcf0"/>
   </g>
   <g id="matplotlib.axis_47"/>
   <g id="matplotlib.axis_48"/>
  </g>
  <g id="axes_25">
   <g id="patch_26">
    <path d="M 7.2 145.8 
L 62.64 145.8 
L 62.64 118.08 
L 7.2 118.08 
z
" style="fill: #ffffff"/>
   </g>
   <g id="QuadMesh_25">
    <path d="M 7.2 118.08 
L 34.92 118.08 
L 34.92 145.8 
L 7.2 145.8 
L 7.2 118.08 
" clip-path="url(#pfc820631f5)" style="fill: #084081"/>
    <path d="M 34.92 118.08 
L 62.64 118.08 
L 62.64 145.8 
L 34.92 145.8 
L 34.92 118.08 
" clip-path="url(#pfc820631f5)" style="fill: #085395"/>
   </g>
   <g id="matplotlib.axis_49"/>
   <g id="matplotlib.axis_50"/>
  </g>
  <g id="axes_26">
   <g id="patch_27">
    <path d="M 63 145.8 
L 118.44 145.8 
L 118.44 118.08 
L 63 118.08 
z
" style="fill: #ffffff"/>
   </g>
   <g id="QuadMesh_26">
    <path d="M 63 118.08 
L 90.72 118.08 
L 90.72 145.8 
L 63 145.8 
L 63 118.08 
" clip-path="url(#p24db997a4f)" style="fill: #084081"/>
    <path d="M 90.72 118.08 
L 118.44 118.08 
L 118.44 145.8 
L 90.72 145.8 
L 90.72 118.08 
" clip-path="url(#p24db997a4f)" style="fill: #50b4d2"/>
   </g>
   <g id="matplotlib.axis_51"/>
   <g id="matplotlib.axis_52"/>
  </g>
  <g id="axes_27">
   <g id="patch_28">
    <path d="M 118.8 145.8 
L 174.24 145.8 
L 174.24 118.08 
L 118.8 118.08 
z
" style="fill: #ffffff"/>
   </g>
   <g id="QuadMesh_27">
    <path d="M 118.8 118.08 
L 146.52 118.08 
L 146.52 145.8 
L 118.8 145.8 
L 118.8 118.08 
" clip-path="url(#pe02fab9838)" style="fill: #084182"/>
    <path d="M 146.52 118.08 
L 174.24 118.08 
L 174.24 145.8 
L 146.52 145.8 
L 146.52 118.08 
" clip-path="url(#pe02fab9838)" style="fill: #9fdab8"/>
   </g>
   <g id="matplotlib.axis_53"/>
   <g id="matplotlib.axis_54"/>
  </g>
  <g id="axes_28">
   <g id="patch_29">
    <path d="M 174.6 145.8 
L 230.04 145.8 
L 230.04 118.08 
L 174.6 118.08 
z
" style="fill: #ffffff"/>
   </g>
   <g id="QuadMesh_28">
    <path d="M 174.6 118.08 
L 202.32 118.08 
L 202.32 145.8 
L 174.6 145.8 
L 174.6 118.08 
" clip-path="url(#pb022c48558)" style="fill: #0868ac"/>
    <path d="M 202.32 118.08 
L 230.04 118.08 
L 230.04 145.8 
L 202.32 145.8 
L 202.32 118.08 
" clip-path="url(#pb022c48558)" style="fill: #d5efcf"/>
   </g>
   <g id="matplotlib.axis_55"/>
   <g id="matplotlib.axis_56"/>
  </g>
  <g id="axes_29">
   <g id="patch_30">
    <path d="M 230.4 145.8 
L 285.84 145.8 
L 285.84 118.08 
L 230.4 118.08 
z
" style="fill: #ffffff"/>
   </g>
   <g id="QuadMesh_29">
    <path d="M 230.4 118.08 
L 258.12 118.08 
L 258.12 145.8 
L 230.4 145.8 
L 230.4 118.08 
" clip-path="url(#p2b3adddd4b)" style="fill: #bae4bd"/>
    <path d="M 258.12 118.08 
L 285.84 118.08 
L 285.84 145.8 
L 258.12 145.8 
L 258.12 118.08 
" clip-path="url(#p2b3adddd4b)" style="fill: #eff9e9"/>
   </g>
   <g id="matplotlib.axis_57"/>
   <g id="matplotlib.axis_58"/>
  </g>
  <g id="axes_30">
   <g id="patch_31">
    <path d="M 286.2 145.8 
L 341.64 145.8 
L 341.64 118.08 
L 286.2 118.08 
z
" style="fill: #ffffff"/>
   </g>
   <g id="QuadMesh_30">
    <path d="M 286.2 118.08 
L 313.92 118.08 
L 313.92 145.8 
L 286.2 145.8 
L 286.2 118.08 
" clip-path="url(#pd123090fd5)" style="fill: #f7fcf0"/>
    <path d="M 313.92 118.08 
L 341.64 118.08 
L 341.64 145.8 
L 313.92 145.8 
L 313.92 118.08 
" clip-path="url(#pd123090fd5)" style="fill: #f7fcf0"/>
   </g>
   <g id="matplotlib.axis_59"/>
   <g id="matplotlib.axis_60"/>
  </g>
  <g id="axes_31">
   <g id="patch_32">
    <path d="M 7.2 173.52 
L 62.64 173.52 
L 62.64 145.8 
L 7.2 145.8 
z
" style="fill: #ffffff"/>
   </g>
   <g id="QuadMesh_31">
    <path d="M 7.2 145.8 
L 34.92 145.8 
L 34.92 173.52 
L 7.2 173.52 
L 7.2 145.8 
" clip-path="url(#p9e6d8ad17b)" style="fill: #084081"/>
    <path d="M 34.92 145.8 
L 62.64 145.8 
L 62.64 173.52 
L 34.92 173.52 
L 34.92 145.8 
" clip-path="url(#p9e6d8ad17b)" style="fill: #084081"/>
   </g>
   <g id="matplotlib.axis_61"/>
   <g id="matplotlib.axis_62"/>
  </g>
  <g id="axes_32">
   <g id="patch_33">
    <path d="M 63 173.52 
L 118.44 173.52 
L 118.44 145.8 
L 63 145.8 
z
" style="fill: #ffffff"/>
   </g>
   <g id="QuadMesh_32">
    <path d="M 63 145.8 
L 90.72 145.8 
L 90.72 173.52 
L 63 173.52 
L 63 145.8 
" clip-path="url(#p4f95cdd6d5)" style="fill: #084081"/>
    <path d="M 90.72 145.8 
L 118.44 145.8 
L 118.44 173.52 
L 90.72 173.52 
L 90.72 145.8 
" clip-path="url(#p4f95cdd6d5)" style="fill: #49add0"/>
   </g>
   <g id="matplotlib.axis_63"/>
   <g id="matplotlib.axis_64"/>
  </g>
  <g id="axes_33">
   <g id="patch_34">
    <path d="M 118.8 173.52 
L 174.24 173.52 
L 174.24 145.8 
L 118.8 145.8 
z
" style="fill: #ffffff"/>
   </g>
   <g id="QuadMesh_33">
    <path d="M 118.8 145.8 
L 146.52 145.8 
L 146.52 173.52 
L 118.8 173.52 
L 118.8 145.8 
" clip-path="url(#paeecde0d4f)" style="fill: #084081"/>
    <path d="M 146.52 145.8 
L 174.24 145.8 
L 174.24 173.52 
L 146.52 173.52 
L 146.52 145.8 
" clip-path="url(#paeecde0d4f)" style="fill: #9cd9b9"/>
   </g>
   <g id="matplotlib.axis_65"/>
   <g id="matplotlib.axis_66"/>
  </g>
  <g id="axes_34">
   <g id="patch_35">
    <path d="M 174.6 173.52 
L 230.04 173.52 
L 230.04 145.8 
L 174.6 145.8 
z
" style="fill: #ffffff"/>
   </g>
   <g id="QuadMesh_34">
    <path d="M 174.6 145.8 
L 202.32 145.8 
L 202.32 173.52 
L 174.6 173.52 
L 174.6 145.8 
" clip-path="url(#p8420df9522)" style="fill: #0864a8"/>
    <path d="M 202.32 145.8 
L 230.04 145.8 
L 230.04 173.52 
L 202.32 173.52 
L 202.32 145.8 
" clip-path="url(#p8420df9522)" style="fill: #d8f0d2"/>
   </g>
   <g id="matplotlib.axis_67"/>
   <g id="matplotlib.axis_68"/>
  </g>
  <g id="axes_35">
   <g id="patch_36">
    <path d="M 230.4 173.52 
L 285.84 173.52 
L 285.84 145.8 
L 230.4 145.8 
z
" style="fill: #ffffff"/>
   </g>
   <g id="QuadMesh_35">
    <path d="M 230.4 145.8 
L 258.12 145.8 
L 258.12 173.52 
L 230.4 173.52 
L 230.4 145.8 
" clip-path="url(#p505477cacf)" style="fill: #9bd8b9"/>
    <path d="M 258.12 145.8 
L 285.84 145.8 
L 285.84 173.52 
L 258.12 173.52 
L 258.12 145.8 
" clip-path="url(#p505477cacf)" style="fill: #f3faec"/>
   </g>
   <g id="matplotlib.axis_69"/>
   <g id="matplotlib.axis_70"/>
  </g>
  <g id="axes_36">
   <g id="patch_37">
    <path d="M 286.2 173.52 
L 341.64 173.52 
L 341.64 145.8 
L 286.2 145.8 
z
" style="fill: #ffffff"/>
   </g>
   <g id="QuadMesh_36">
    <path d="M 286.2 145.8 
L 313.92 145.8 
L 313.92 173.52 
L 286.2 173.52 
L 286.2 145.8 
" clip-path="url(#p02e167434a)" style="fill: #f7fcf0"/>
    <path d="M 313.92 145.8 
L 341.64 145.8 
L 341.64 173.52 
L 313.92 173.52 
L 313.92 145.8 
" clip-path="url(#p02e167434a)" style="fill: #f7fcf0"/>
   </g>
   <g id="matplotlib.axis_71"/>
   <g id="matplotlib.axis_72"/>
  </g>
  <g id="axes_37">
   <g id="patch_38">
    <path d="M 7.2 201.24 
L 62.64 201.24 
L 62.64 173.52 
L 7.2 173.52 
z
" style="fill: #ffffff"/>
   </g>
   <g id="QuadMesh_37">
    <path d="M 7.2 173.52 
L 34.92 173.52 
L 34.92 201.24 
L 7.2 201.24 
L 7.2 173.52 
" clip-path="url(#pabad673ae1)" style="fill: #084081"/>
    <path d="M 34.92 173.52 
L 62.64 173.52 
L 62.64 201.24 
L 34.92 201.24 
L 34.92 173.52 
" clip-path="url(#pabad673ae1)" style="fill: #084081"/>
   </g>
   <g id="matplotlib.axis_73"/>
   <g id="matplotlib.axis_74"/>
  </g>
  <g id="axes_38">
   <g id="patch_39">
    <path d="M 63 201.24 
L 118.44 201.24 
L 118.44 173.52 
L 63 173.52 
z
" style="fill: #ffffff"/>
   </g>
   <g id="QuadMesh_38">
    <path d="M 63 173.52 
L 90.72 173.52 
L 90.72 201.24 
L 63 201.24 
L 63 173.52 
" clip-path="url(#p1c0f0582b7)" style="fill: #084081"/>
    <path d="M 90.72 173.52 
L 118.44 173.52 
L 118.44 201.24 
L 90.72 201.24 
L 90.72 173.52 
" clip-path="url(#p1c0f0582b7)" style="fill: #4db2d3"/>
   </g>
   <g id="matplotlib.axis_75"/>
   <g id="matplotlib.axis_76"/>
  </g>
  <g id="axes_39">
   <g id="patch_40">
    <path d="M 118.8 201.24 
L 174.24 201.24 
L 174.24 173.52 
L 118.8 173.52 
z
" style="fill: #ffffff"/>
   </g>
   <g id="QuadMesh_39">
    <path d="M 118.8 173.52 
L 146.52 173.52 
L 146.52 201.24 
L 118.8 201.24 
L 118.8 173.52 
" clip-path="url(#p629d26a22b)" style="fill: #084081"/>
    <path d="M 146.52 173.52 
L 174.24 173.52 
L 174.24 201.24 
L 146.52 201.24 
L 146.52 173.52 
" clip-path="url(#p629d26a22b)" style="fill: #9ed9b8"/>
   </g>
   <g id="matplotlib.axis_77"/>
   <g id="matplotlib.axis_78"/>
  </g>
  <g id="axes_40">
   <g id="patch_41">
    <path d="M 174.6 201.24 
L 230.04 201.24 
L 230.04 173.52 
L 174.6 173.52 
z
" style="fill: #ffffff"/>
   </g>
   <g id="QuadMesh_40">
    <path d="M 174.6 173.52 
L 202.32 173.52 
L 202.32 201.24 
L 174.6 201.24 
L 174.6 173.52 
" clip-path="url(#pa396eb58b3)" style="fill: #084f91"/>
    <path d="M 202.32 173.52 
L 230.04 173.52 
L 230.04 201.24 
L 202.32 201.24 
L 202.32 173.52 
" clip-path="url(#pa396eb58b3)" style="fill: #d3eecc"/>
   </g>
   <g id="matplotlib.axis_79"/>
   <g id="matplotlib.axis_80"/>
  </g>
  <g id="axes_41">
   <g id="patch_42">
    <path d="M 230.4 201.24 
L 285.84 201.24 
L 285.84 173.52 
L 230.4 173.52 
z
" style="fill: #ffffff"/>
   </g>
   <g id="QuadMesh_41">
    <path d="M 230.4 173.52 
L 258.12 173.52 
L 258.12 201.24 
L 230.4 201.24 
L 230.4 173.52 
" clip-path="url(#pcf614c4451)" style="fill: #cfecc8"/>
    <path d="M 258.12 173.52 
L 285.84 173.52 
L 285.84 201.24 
L 258.12 201.24 
L 258.12 173.52 
" clip-path="url(#pcf614c4451)" style="fill: #f3faec"/>
   </g>
   <g id="matplotlib.axis_81"/>
   <g id="matplotlib.axis_82"/>
  </g>
  <g id="axes_42">
   <g id="patch_43">
    <path d="M 286.2 201.24 
L 341.64 201.24 
L 341.64 173.52 
L 286.2 173.52 
z
" style="fill: #ffffff"/>
   </g>
   <g id="QuadMesh_42">
    <path d="M 286.2 173.52 
L 313.92 173.52 
L 313.92 201.24 
L 286.2 201.24 
L 286.2 173.52 
" clip-path="url(#pdc5a5b5485)" style="fill: #f7fcf0"/>
    <path d="M 313.92 173.52 
L 341.64 173.52 
L 341.64 201.24 
L 313.92 201.24 
L 313.92 173.52 
" clip-path="url(#pdc5a5b5485)" style="fill: #f7fcf0"/>
   </g>
   <g id="matplotlib.axis_83"/>
   <g id="matplotlib.axis_84"/>
  </g>
  <g id="axes_43">
   <g id="patch_44">
    <path d="M 7.2 228.96 
L 62.64 228.96 
L 62.64 201.24 
L 7.2 201.24 
z
" style="fill: #ffffff"/>
   </g>
   <g id="QuadMesh_43">
    <path d="M 7.2 201.24 
L 34.92 201.24 
L 34.92 228.96 
L 7.2 228.96 
L 7.2 201.24 
" clip-path="url(#pc4e730eb91)" style="fill: #084081"/>
    <path d="M 34.92 201.24 
L 62.64 201.24 
L 62.64 228.96 
L 34.92 228.96 
L 34.92 201.24 
" clip-path="url(#pc4e730eb91)" style="fill: #084b8d"/>
   </g>
   <g id="matplotlib.axis_85"/>
   <g id="matplotlib.axis_86"/>
  </g>
  <g id="axes_44">
   <g id="patch_45">
    <path d="M 63 228.96 
L 118.44 228.96 
L 118.44 201.24 
L 63 201.24 
z
" style="fill: #ffffff"/>
   </g>
   <g id="QuadMesh_44">
    <path d="M 63 201.24 
L 90.72 201.24 
L 90.72 228.96 
L 63 228.96 
L 63 201.24 
" clip-path="url(#pfa513a9855)" style="fill: #084384"/>
    <path d="M 90.72 201.24 
L 118.44 201.24 
L 118.44 228.96 
L 90.72 228.96 
L 90.72 201.24 
" clip-path="url(#pfa513a9855)" style="fill: #51b5d2"/>
   </g>
   <g id="matplotlib.axis_87"/>
   <g id="matplotlib.axis_88"/>
  </g>
  <g id="axes_45">
   <g id="patch_46">
    <path d="M 118.8 228.96 
L 174.24 228.96 
L 174.24 201.24 
L 118.8 201.24 
z
" style="fill: #ffffff"/>
   </g>
   <g id="QuadMesh_45">
    <path d="M 118.8 201.24 
L 146.52 201.24 
L 146.52 228.96 
L 118.8 228.96 
L 118.8 201.24 
" clip-path="url(#paf423210cd)" style="fill: #084a8c"/>
    <path d="M 146.52 201.24 
L 174.24 201.24 
L 174.24 228.96 
L 146.52 228.96 
L 146.52 201.24 
" clip-path="url(#paf423210cd)" style="fill: #a9ddb5"/>
   </g>
   <g id="matplotlib.axis_89"/>
   <g id="matplotlib.axis_90"/>
  </g>
  <g id="axes_46">
   <g id="patch_47">
    <path d="M 174.6 228.96 
L 230.04 228.96 
L 230.04 201.24 
L 174.6 201.24 
z
" style="fill: #ffffff"/>
   </g>
   <g id="QuadMesh_46">
    <path d="M 174.6 201.24 
L 202.32 201.24 
L 202.32 228.96 
L 174.6 228.96 
L 174.6 201.24 
" clip-path="url(#p506704d77c)" style="fill: #dbf1d5"/>
    <path d="M 202.32 201.24 
L 230.04 201.24 
L 230.04 228.96 
L 202.32 228.96 
L 202.32 201.24 
" clip-path="url(#p506704d77c)" style="fill: #edf8e7"/>
   </g>
   <g id="matplotlib.axis_91"/>
   <g id="matplotlib.axis_92"/>
  </g>
  <g id="axes_47">
   <g id="patch_48">
    <path d="M 230.4 228.96 
L 285.84 228.96 
L 285.84 201.24 
L 230.4 201.24 
z
" style="fill: #ffffff"/>
   </g>
   <g id="QuadMesh_47">
    <path d="M 230.4 201.24 
L 258.12 201.24 
L 258.12 228.96 
L 230.4 228.96 
L 230.4 201.24 
" clip-path="url(#p64ffa082eb)" style="fill: #e2f4dd"/>
    <path d="M 258.12 201.24 
L 285.84 201.24 
L 285.84 228.96 
L 258.12 228.96 
L 258.12 201.24 
" clip-path="url(#p64ffa082eb)" style="fill: #f5fbee"/>
   </g>
   <g id="matplotlib.axis_93"/>
   <g id="matplotlib.axis_94"/>
  </g>
  <g id="axes_48">
   <g id="patch_49">
    <path d="M 286.2 228.96 
L 341.64 228.96 
L 341.64 201.24 
L 286.2 201.24 
z
" style="fill: #ffffff"/>
   </g>
   <g id="QuadMesh_48">
    <path d="M 286.2 201.24 
L 313.92 201.24 
L 313.92 228.96 
L 286.2 228.96 
L 286.2 201.24 
" clip-path="url(#pc10145c6ca)" style="fill: #f7fcf0"/>
    <path d="M 313.92 201.24 
L 341.64 201.24 
L 341.64 228.96 
L 313.92 228.96 
L 313.92 201.24 
" clip-path="url(#pc10145c6ca)" style="fill: #f7fcf0"/>
   </g>
   <g id="matplotlib.axis_95"/>
   <g id="matplotlib.axis_96"/>
  </g>
 </g>
 <defs>
  <clipPath id="pd20f03678f">
   <rect x="7.2" y="7.2" width="55.44" height="27.72"/>
  </clipPath>
  <clipPath id="p54ca461c0f">
   <rect x="63" y="7.2" width="55.44" height="27.72"/>
  </clipPath>
  <clipPath id="p8c9137d6fc">
   <rect x="118.8" y="7.2" width="55.44" height="27.72"/>
  </clipPath>
  <clipPath id="pad3be815e9">
   <rect x="174.6" y="7.2" width="55.44" height="27.72"/>
  </clipPath>
  <clipPath id="p6ab5247dd7">
   <rect x="230.4" y="7.2" width="55.44" height="27.72"/>
  </clipPath>
  <clipPath id="p1b8e6aad29">
   <rect x="286.2" y="7.2" width="55.44" height="27.72"/>
  </clipPath>
  <clipPath id="pcdd4d43836">
   <rect x="7.2" y="34.92" width="55.44" height="27.72"/>
  </clipPath>
  <clipPath id="pb3c3a3992b">
   <rect x="63" y="34.92" width="55.44" height="27.72"/>
  </clipPath>
  <clipPath id="pfb173329a9">
   <rect x="118.8" y="34.92" width="55.44" height="27.72"/>
  </clipPath>
  <clipPath id="pef3a4b2955">
   <rect x="174.6" y="34.92" width="55.44" height="27.72"/>
  </clipPath>
  <clipPath id="p6313292e8d">
   <rect x="230.4" y="34.92" width="55.44" height="27.72"/>
  </clipPath>
  <clipPath id="peb37ae9130">
   <rect x="286.2" y="34.92" width="55.44" height="27.72"/>
  </clipPath>
  <clipPath id="p2a3f8f03be">
   <rect x="7.2" y="62.64" width="55.44" height="27.72"/>
  </clipPath>
  <clipPath id="p93316ded17">
   <rect x="63" y="62.64" width="55.44" height="27.72"/>
  </clipPath>
  <clipPath id="pc7010add60">
   <rect x="118.8" y="62.64" width="55.44" height="27.72"/>
  </clipPath>
  <clipPath id="p6e9cf26ab0">
   <rect x="174.6" y="62.64" width="55.44" height="27.72"/>
  </clipPath>
  <clipPath id="pa6c69cf8f9">
   <rect x="230.4" y="62.64" width="55.44" height="27.72"/>
  </clipPath>
  <clipPath id="pcbddaca0e3">
   <rect x="286.2" y="62.64" width="55.44" height="27.72"/>
  </clipPath>
  <clipPath id="pd0f2a8defb">
   <rect x="7.2" y="90.36" width="55.44" height="27.72"/>
  </clipPath>
  <clipPath id="p2f16e9296c">
   <rect x="63" y="90.36" width="55.44" height="27.72"/>
  </clipPath>
  <clipPath id="p09ed1c934d">
   <rect x="118.8" y="90.36" width="55.44" height="27.72"/>
  </clipPath>
  <clipPath id="pef3534ae58">
   <rect x="174.6" y="90.36" width="55.44" height="27.72"/>
  </clipPath>
  <clipPath id="pbd49f0e97c">
   <rect x="230.4" y="90.36" width="55.44" height="27.72"/>
  </clipPath>
  <clipPath id="p8c998e7ff6">
   <rect x="286.2" y="90.36" width="55.44" height="27.72"/>
  </clipPath>
  <clipPath id="pfc820631f5">
   <rect x="7.2" y="118.08" width="55.44" height="27.72"/>
  </clipPath>
  <clipPath id="p24db997a4f">
   <rect x="63" y="118.08" width="55.44" height="27.72"/>
  </clipPath>
  <clipPath id="pe02fab9838">
   <rect x="118.8" y="118.08" width="55.44" height="27.72"/>
  </clipPath>
  <clipPath id="pb022c48558">
   <rect x="174.6" y="118.08" width="55.44" height="27.72"/>
  </clipPath>
  <clipPath id="p2b3adddd4b">
   <rect x="230.4" y="118.08" width="55.44" height="27.72"/>
  </clipPath>
  <clipPath id="pd123090fd5">
   <rect x="286.2" y="118.08" width="55.44" height="27.72"/>
  </clipPath>
  <clipPath id="p9e6d8ad17b">
   <rect x="7.2" y="145.8" width="55.44" height="27.72"/>
  </clipPath>
  <clipPath id="p4f95cdd6d5">
   <rect x="63" y="145.8" width="55.44" height="27.72"/>
  </clipPath>
  <clipPath id="paeecde0d4f">
   <rect x="118.8" y="145.8" width="55.44" height="27.72"/>
  </clipPath>
  <clipPath id="p8420df9522">
   <rect x="174.6" y="145.8" width="55.44" height="27.72"/>
  </clipPath>
  <clipPath id="p505477cacf">
   <rect x="230.4" y="145.8" width="55.44" height="27.72"/>
  </clipPath>
  <clipPath id="p02e167434a">
   <rect x="286.2" y="145.8" width="55.44" height="27.72"/>
  </clipPath>
  <clipPath id="pabad673ae1">
   <rect x="7.2" y="173.52" width="55.44" height="27.72"/>
  </clipPath>
  <clipPath id="p1c0f0582b7">
   <rect x="63" y="173.52" width="55.44" height="27.72"/>
  </clipPath>
  <clipPath id="p629d26a22b">
   <rect x="118.8" y="173.52" width="55.44" height="27.72"/>
  </clipPath>
  <clipPath id="pa396eb58b3">
   <rect x="174.6" y="173.52" width="55.44" height="27.72"/>
  </clipPath>
  <clipPath id="pcf614c4451">
   <rect x="230.4" y="173.52" width="55.44" height="27.72"/>
  </clipPath>
  <clipPath id="pdc5a5b5485">
   <rect x="286.2" y="173.52" width="55.44" height="27.72"/>
  </clipPath>
  <clipPath id="pc4e730eb91">
   <rect x="7.2" y="201.24" width="55.44" height="27.72"/>
  </clipPath>
  <clipPath id="pfa513a9855">
   <rect x="63" y="201.24" width="55.44" height="27.72"/>
  </clipPath>
  <clipPath id="paf423210cd">
   <rect x="118.8" y="201.24" width="55.44" height="27.72"/>
  </clipPath>
  <clipPath id="p506704d77c">
   <rect x="174.6" y="201.24" width="55.44" height="27.72"/>
  </clipPath>
  <clipPath id="p64ffa082eb">
   <rect x="230.4" y="201.24" width="55.44" height="27.72"/>
  </clipPath>
  <clipPath id="pc10145c6ca">
   <rect x="286.2" y="201.24" width="55.44" height="27.72"/>
  </clipPath>
 </defs>
</svg>
