<?xml version="1.0" encoding="utf-8" standalone="no"?>
<!DOCTYPE svg PUBLIC "-//W3C//DTD SVG 1.1//EN"
  "http://www.w3.org/Graphics/SVG/1.1/DTD/svg11.dtd">
<svg xmlns:xlink="http://www.w3.org/1999/xlink" width="136.252593pt" height="701.197187pt" viewBox="0 0 136.252593 701.197187" xmlns="http://www.w3.org/2000/svg" version="1.1">
 <metadata>
  <rdf:RDF xmlns:dc="http://purl.org/dc/elements/1.1/" xmlns:cc="http://creativecommons.org/ns#" xmlns:rdf="http://www.w3.org/1999/02/22-rdf-syntax-ns#">
   <cc:Work>
    <dc:type rdf:resource="http://purl.org/dc/dcmitype/StillImage"/>
    <dc:date>2025-02-14T13:53:07.562679</dc:date>
    <dc:format>image/svg+xml</dc:format>
    <dc:creator>
     <cc:Agent>
      <dc:title>Matplotlib v3.9.2, https://matplotlib.org/</dc:title>
     </cc:Agent>
    </dc:creator>
   </cc:Work>
  </rdf:RDF>
 </metadata>
 <defs>
  <style type="text/css">*{stroke-linejoin: round; stroke-linecap: butt}</style>
 </defs>
 <g id="figure_1">
  <g id="patch_1">
   <path d="M 0 701.197187 
L 136.252593 701.197187 
L 136.252593 0 
L 0 0 
z
" style="fill: #ffffff"/>
  </g>
  <g id="axes_1">
   <g id="patch_2">
    <path d="M 58.278125 82.813531 
L 129.052593 82.813531 
L 129.052593 12.039062 
L 58.278125 12.039062 
z
" style="fill: #ffffff"/>
   </g>
   <g id="QuadMesh_1">
    <path d="M 58.278125 12.039062 
L 75.971742 12.039062 
L 75.971742 29.73268 
L 58.278125 29.73268 
L 58.278125 12.039062 
" clip-path="url(#p9d6344b4b7)" style="fill: #fcede7"/>
    <path d="M 75.971742 12.039062 
L 93.665359 12.039062 
L 93.665359 29.73268 
L 75.971742 29.73268 
L 75.971742 12.039062 
" clip-path="url(#p9d6344b4b7)" style="fill: #fcfcfc"/>
    <path d="M 93.665359 12.039062 
L 111.358976 12.039062 
L 111.358976 29.73268 
L 93.665359 29.73268 
L 93.665359 12.039062 
" clip-path="url(#p9d6344b4b7)" style="fill: #fcfcfc"/>
    <path d="M 111.358976 12.039062 
L 129.052593 12.039062 
L 129.052593 29.73268 
L 111.358976 29.73268 
L 111.358976 12.039062 
" clip-path="url(#p9d6344b4b7)" style="fill: #fcf9f8"/>
    <path d="M 58.278125 29.73268 
L 75.971742 29.73268 
L 75.971742 47.426297 
L 58.278125 47.426297 
L 58.278125 29.73268 
" clip-path="url(#p9d6344b4b7)" style="fill: #fcccb9"/>
    <path d="M 75.971742 29.73268 
L 93.665359 29.73268 
L 93.665359 47.426297 
L 75.971742 47.426297 
L 75.971742 29.73268 
" clip-path="url(#p9d6344b4b7)" style="fill: #fccebc"/>
    <path d="M 93.665359 29.73268 
L 111.358976 29.73268 
L 111.358976 47.426297 
L 93.665359 47.426297 
L 93.665359 29.73268 
" clip-path="url(#p9d6344b4b7)" style="fill: #fcc3ac"/>
    <path d="M 111.358976 29.73268 
L 129.052593 29.73268 
L 129.052593 47.426297 
L 111.358976 47.426297 
L 111.358976 29.73268 
" clip-path="url(#p9d6344b4b7)" style="fill: #fcc5af"/>
    <path d="M 58.278125 47.426297 
L 75.971742 47.426297 
L 75.971742 65.119914 
L 58.278125 65.119914 
L 58.278125 47.426297 
" clip-path="url(#p9d6344b4b7)" style="fill: #fcb398"/>
    <path d="M 75.971742 47.426297 
L 93.665359 47.426297 
L 93.665359 65.119914 
L 75.971742 65.119914 
L 75.971742 47.426297 
" clip-path="url(#p9d6344b4b7)" style="fill: #fc9a7d"/>
    <path d="M 93.665359 47.426297 
L 111.358976 47.426297 
L 111.358976 65.119914 
L 93.665359 65.119914 
L 93.665359 47.426297 
" clip-path="url(#p9d6344b4b7)" style="fill: #fb8c6e"/>
    <path d="M 111.358976 47.426297 
L 129.052593 47.426297 
L 129.052593 65.119914 
L 111.358976 65.119914 
L 111.358976 47.426297 
" clip-path="url(#p9d6344b4b7)" style="fill: #fb7f61"/>
    <path d="M 58.278125 65.119914 
L 75.971742 65.119914 
L 75.971742 82.813531 
L 58.278125 82.813531 
L 58.278125 65.119914 
" clip-path="url(#p9d6344b4b7)" style="fill: #fccbb7"/>
    <path d="M 75.971742 65.119914 
L 93.665359 65.119914 
L 93.665359 82.813531 
L 75.971742 82.813531 
L 75.971742 65.119914 
" clip-path="url(#p9d6344b4b7)" style="fill: #fc9f83"/>
    <path d="M 93.665359 65.119914 
L 111.358976 65.119914 
L 111.358976 82.813531 
L 93.665359 82.813531 
L 93.665359 65.119914 
" clip-path="url(#p9d6344b4b7)" style="fill: #fb9174"/>
    <path d="M 111.358976 65.119914 
L 129.052593 65.119914 
L 129.052593 82.813531 
L 111.358976 82.813531 
L 111.358976 65.119914 
" clip-path="url(#p9d6344b4b7)" style="fill: #fb7a5b"/>
   </g>
   <g id="patch_3">
    <path d="M 75.971742 12.039062 
L 93.665359 12.039062 
L 93.665359 29.73268 
L 75.971742 29.73268 
L 75.971742 12.039062 
z
" clip-path="url(#p9d6344b4b7)" style="fill: none; stroke: #000000; stroke-linejoin: miter"/>
   </g>
   <g id="patch_4">
    <path d="M 93.665359 29.73268 
L 111.358976 29.73268 
L 111.358976 47.426297 
L 93.665359 47.426297 
L 93.665359 29.73268 
z
" clip-path="url(#p9d6344b4b7)" style="fill: none; stroke: #000000; stroke-linejoin: miter"/>
   </g>
   <g id="patch_5">
    <path d="M 111.358976 47.426297 
L 129.052593 47.426297 
L 129.052593 65.119914 
L 111.358976 65.119914 
L 111.358976 47.426297 
z
" clip-path="url(#p9d6344b4b7)" style="fill: none; stroke: #000000; stroke-linejoin: miter"/>
   </g>
   <g id="matplotlib.axis_1"/>
   <g id="matplotlib.axis_2">
    <g id="ytick_1">
     <g id="line2d_1">
      <defs>
       <path id="m3b9747153f" d="M 0 0 
L -3.5 0 
" style="stroke: #000000; stroke-width: 0.8"/>
      </defs>
      <g>
       <use xlink:href="#m3b9747153f" x="58.278125" y="12.039062" style="stroke: #000000; stroke-width: 0.8"/>
      </g>
     </g>
     <g id="text_1">
      <!-- $M_0$-$M_1$ -->
      <g transform="translate(20.878125 14.798437) scale(0.1 -0.1)">
       <defs>
        <path id="DejaVuSans-Oblique-4d" d="M 1081 4666 
L 2028 4666 
L 2572 1522 
L 4378 4666 
L 5350 4666 
L 4441 0 
L 3828 0 
L 4622 4091 
L 2791 897 
L 2175 897 
L 1581 4103 
L 788 0 
L 172 0 
L 1081 4666 
z
" transform="scale(0.015625)"/>
        <path id="DejaVuSans-30" d="M 2034 4250 
Q 1547 4250 1301 3770 
Q 1056 3291 1056 2328 
Q 1056 1369 1301 889 
Q 1547 409 2034 409 
Q 2525 409 2770 889 
Q 3016 1369 3016 2328 
Q 3016 3291 2770 3770 
Q 2525 4250 2034 4250 
z
M 2034 4750 
Q 2819 4750 3233 4129 
Q 3647 3509 3647 2328 
Q 3647 1150 3233 529 
Q 2819 -91 2034 -91 
Q 1250 -91 836 529 
Q 422 1150 422 2328 
Q 422 3509 836 4129 
Q 1250 4750 2034 4750 
z
" transform="scale(0.015625)"/>
        <path id="DejaVuSans-2d" d="M 313 2009 
L 1997 2009 
L 1997 1497 
L 313 1497 
L 313 2009 
z
" transform="scale(0.015625)"/>
        <path id="DejaVuSans-31" d="M 794 531 
L 1825 531 
L 1825 4091 
L 703 3866 
L 703 4441 
L 1819 4666 
L 2450 4666 
L 2450 531 
L 3481 531 
L 3481 0 
L 794 0 
L 794 531 
z
" transform="scale(0.015625)"/>
       </defs>
       <use xlink:href="#DejaVuSans-Oblique-4d" transform="translate(0 0.09375)"/>
       <use xlink:href="#DejaVuSans-30" transform="translate(86.279297 -16.3125) scale(0.7)"/>
       <use xlink:href="#DejaVuSans-2d" transform="translate(133.549805 0.09375)"/>
       <use xlink:href="#DejaVuSans-Oblique-4d" transform="translate(169.633789 0.09375)"/>
       <use xlink:href="#DejaVuSans-31" transform="translate(255.913086 -16.3125) scale(0.7)"/>
      </g>
     </g>
    </g>
    <g id="ytick_2">
     <g id="line2d_2">
      <g>
       <use xlink:href="#m3b9747153f" x="58.278125" y="29.73268" style="stroke: #000000; stroke-width: 0.8"/>
      </g>
     </g>
     <g id="text_2">
      <!-- $M_0$-$M_2$ -->
      <g transform="translate(20.878125 32.492055) scale(0.1 -0.1)">
       <defs>
        <path id="DejaVuSans-32" d="M 1228 531 
L 3431 531 
L 3431 0 
L 469 0 
L 469 531 
Q 828 903 1448 1529 
Q 2069 2156 2228 2338 
Q 2531 2678 2651 2914 
Q 2772 3150 2772 3378 
Q 2772 3750 2511 3984 
Q 2250 4219 1831 4219 
Q 1534 4219 1204 4116 
Q 875 4013 500 3803 
L 500 4441 
Q 881 4594 1212 4672 
Q 1544 4750 1819 4750 
Q 2544 4750 2975 4387 
Q 3406 4025 3406 3419 
Q 3406 3131 3298 2873 
Q 3191 2616 2906 2266 
Q 2828 2175 2409 1742 
Q 1991 1309 1228 531 
z
" transform="scale(0.015625)"/>
       </defs>
       <use xlink:href="#DejaVuSans-Oblique-4d" transform="translate(0 0.09375)"/>
       <use xlink:href="#DejaVuSans-30" transform="translate(86.279297 -16.3125) scale(0.7)"/>
       <use xlink:href="#DejaVuSans-2d" transform="translate(133.549805 0.09375)"/>
       <use xlink:href="#DejaVuSans-Oblique-4d" transform="translate(169.633789 0.09375)"/>
       <use xlink:href="#DejaVuSans-32" transform="translate(255.913086 -16.3125) scale(0.7)"/>
      </g>
     </g>
    </g>
    <g id="ytick_3">
     <g id="line2d_3">
      <g>
       <use xlink:href="#m3b9747153f" x="58.278125" y="47.426297" style="stroke: #000000; stroke-width: 0.8"/>
      </g>
     </g>
     <g id="text_3">
      <!-- $M_0$-$M_3$ -->
      <g transform="translate(20.878125 50.185672) scale(0.1 -0.1)">
       <defs>
        <path id="DejaVuSans-33" d="M 2597 2516 
Q 3050 2419 3304 2112 
Q 3559 1806 3559 1356 
Q 3559 666 3084 287 
Q 2609 -91 1734 -91 
Q 1441 -91 1130 -33 
Q 819 25 488 141 
L 488 750 
Q 750 597 1062 519 
Q 1375 441 1716 441 
Q 2309 441 2620 675 
Q 2931 909 2931 1356 
Q 2931 1769 2642 2001 
Q 2353 2234 1838 2234 
L 1294 2234 
L 1294 2753 
L 1863 2753 
Q 2328 2753 2575 2939 
Q 2822 3125 2822 3475 
Q 2822 3834 2567 4026 
Q 2313 4219 1838 4219 
Q 1578 4219 1281 4162 
Q 984 4106 628 3988 
L 628 4550 
Q 988 4650 1302 4700 
Q 1616 4750 1894 4750 
Q 2613 4750 3031 4423 
Q 3450 4097 3450 3541 
Q 3450 3153 3228 2886 
Q 3006 2619 2597 2516 
z
" transform="scale(0.015625)"/>
       </defs>
       <use xlink:href="#DejaVuSans-Oblique-4d" transform="translate(0 0.09375)"/>
       <use xlink:href="#DejaVuSans-30" transform="translate(86.279297 -16.3125) scale(0.7)"/>
       <use xlink:href="#DejaVuSans-2d" transform="translate(133.549805 0.09375)"/>
       <use xlink:href="#DejaVuSans-Oblique-4d" transform="translate(169.633789 0.09375)"/>
       <use xlink:href="#DejaVuSans-33" transform="translate(255.913086 -16.3125) scale(0.7)"/>
      </g>
     </g>
    </g>
    <g id="ytick_4">
     <g id="line2d_4">
      <g>
       <use xlink:href="#m3b9747153f" x="58.278125" y="65.119914" style="stroke: #000000; stroke-width: 0.8"/>
      </g>
     </g>
     <g id="text_4">
      <!-- $M_0$-$M_4$ -->
      <g transform="translate(20.878125 67.879289) scale(0.1 -0.1)">
       <defs>
        <path id="DejaVuSans-34" d="M 2419 4116 
L 825 1625 
L 2419 1625 
L 2419 4116 
z
M 2253 4666 
L 3047 4666 
L 3047 1625 
L 3713 1625 
L 3713 1100 
L 3047 1100 
L 3047 0 
L 2419 0 
L 2419 1100 
L 313 1100 
L 313 1709 
L 2253 4666 
z
" transform="scale(0.015625)"/>
       </defs>
       <use xlink:href="#DejaVuSans-Oblique-4d" transform="translate(0 0.09375)"/>
       <use xlink:href="#DejaVuSans-30" transform="translate(86.279297 -16.3125) scale(0.7)"/>
       <use xlink:href="#DejaVuSans-2d" transform="translate(133.549805 0.09375)"/>
       <use xlink:href="#DejaVuSans-Oblique-4d" transform="translate(169.633789 0.09375)"/>
       <use xlink:href="#DejaVuSans-34" transform="translate(255.913086 -16.3125) scale(0.7)"/>
      </g>
     </g>
    </g>
    <g id="text_5">
     <!-- Linear -->
     <g transform="translate(14.798437 62.96614) rotate(-90) scale(0.1 -0.1)">
      <defs>
       <path id="DejaVuSans-4c" d="M 628 4666 
L 1259 4666 
L 1259 531 
L 3531 531 
L 3531 0 
L 628 0 
L 628 4666 
z
" transform="scale(0.015625)"/>
       <path id="DejaVuSans-69" d="M 603 3500 
L 1178 3500 
L 1178 0 
L 603 0 
L 603 3500 
z
M 603 4863 
L 1178 4863 
L 1178 4134 
L 603 4134 
L 603 4863 
z
" transform="scale(0.015625)"/>
       <path id="DejaVuSans-6e" d="M 3513 2113 
L 3513 0 
L 2938 0 
L 2938 2094 
Q 2938 2591 2744 2837 
Q 2550 3084 2163 3084 
Q 1697 3084 1428 2787 
Q 1159 2491 1159 1978 
L 1159 0 
L 581 0 
L 581 3500 
L 1159 3500 
L 1159 2956 
Q 1366 3272 1645 3428 
Q 1925 3584 2291 3584 
Q 2894 3584 3203 3211 
Q 3513 2838 3513 2113 
z
" transform="scale(0.015625)"/>
       <path id="DejaVuSans-65" d="M 3597 1894 
L 3597 1613 
L 953 1613 
Q 991 1019 1311 708 
Q 1631 397 2203 397 
Q 2534 397 2845 478 
Q 3156 559 3463 722 
L 3463 178 
Q 3153 47 2828 -22 
Q 2503 -91 2169 -91 
Q 1331 -91 842 396 
Q 353 884 353 1716 
Q 353 2575 817 3079 
Q 1281 3584 2069 3584 
Q 2775 3584 3186 3129 
Q 3597 2675 3597 1894 
z
M 3022 2063 
Q 3016 2534 2758 2815 
Q 2500 3097 2075 3097 
Q 1594 3097 1305 2825 
Q 1016 2553 972 2059 
L 3022 2063 
z
" transform="scale(0.015625)"/>
       <path id="DejaVuSans-61" d="M 2194 1759 
Q 1497 1759 1228 1600 
Q 959 1441 959 1056 
Q 959 750 1161 570 
Q 1363 391 1709 391 
Q 2188 391 2477 730 
Q 2766 1069 2766 1631 
L 2766 1759 
L 2194 1759 
z
M 3341 1997 
L 3341 0 
L 2766 0 
L 2766 531 
Q 2569 213 2275 61 
Q 1981 -91 1556 -91 
Q 1019 -91 701 211 
Q 384 513 384 1019 
Q 384 1609 779 1909 
Q 1175 2209 1959 2209 
L 2766 2209 
L 2766 2266 
Q 2766 2663 2505 2880 
Q 2244 3097 1772 3097 
Q 1472 3097 1187 3025 
Q 903 2953 641 2809 
L 641 3341 
Q 956 3463 1253 3523 
Q 1550 3584 1831 3584 
Q 2591 3584 2966 3190 
Q 3341 2797 3341 1997 
z
" transform="scale(0.015625)"/>
       <path id="DejaVuSans-72" d="M 2631 2963 
Q 2534 3019 2420 3045 
Q 2306 3072 2169 3072 
Q 1681 3072 1420 2755 
Q 1159 2438 1159 1844 
L 1159 0 
L 581 0 
L 581 3500 
L 1159 3500 
L 1159 2956 
Q 1341 3275 1631 3429 
Q 1922 3584 2338 3584 
Q 2397 3584 2469 3576 
Q 2541 3569 2628 3553 
L 2631 2963 
z
" transform="scale(0.015625)"/>
      </defs>
      <use xlink:href="#DejaVuSans-4c"/>
      <use xlink:href="#DejaVuSans-69" x="55.712891"/>
      <use xlink:href="#DejaVuSans-6e" x="83.496094"/>
      <use xlink:href="#DejaVuSans-65" x="146.875"/>
      <use xlink:href="#DejaVuSans-61" x="208.398438"/>
      <use xlink:href="#DejaVuSans-72" x="269.677734"/>
     </g>
    </g>
   </g>
  </g>
  <g id="axes_2">
   <g id="patch_6">
    <path d="M 58.278125 167.742892 
L 129.052593 167.742892 
L 129.052593 96.968424 
L 58.278125 96.968424 
z
" style="fill: #ffffff"/>
   </g>
   <g id="QuadMesh_2">
    <path d="M 58.278125 96.968424 
L 75.971742 96.968424 
L 75.971742 114.662041 
L 58.278125 114.662041 
L 58.278125 96.968424 
" clip-path="url(#pd1205754a4)" style="fill: #fce5db"/>
    <path d="M 75.971742 96.968424 
L 93.665359 96.968424 
L 93.665359 114.662041 
L 75.971742 114.662041 
L 75.971742 96.968424 
" clip-path="url(#pd1205754a4)" style="fill: #fcd8ca"/>
    <path d="M 93.665359 96.968424 
L 111.358976 96.968424 
L 111.358976 114.662041 
L 93.665359 114.662041 
L 93.665359 96.968424 
" clip-path="url(#pd1205754a4)" style="fill: #fce4da"/>
    <path d="M 111.358976 96.968424 
L 129.052593 96.968424 
L 129.052593 114.662041 
L 111.358976 114.662041 
L 111.358976 96.968424 
" clip-path="url(#pd1205754a4)" style="fill: #fce5db"/>
    <path d="M 58.278125 114.662041 
L 75.971742 114.662041 
L 75.971742 132.355658 
L 58.278125 132.355658 
L 58.278125 114.662041 
" clip-path="url(#pd1205754a4)" style="fill: #fca185"/>
    <path d="M 75.971742 114.662041 
L 93.665359 114.662041 
L 93.665359 132.355658 
L 75.971742 132.355658 
L 75.971742 114.662041 
" clip-path="url(#pd1205754a4)" style="fill: #fc9a7d"/>
    <path d="M 93.665359 114.662041 
L 111.358976 114.662041 
L 111.358976 132.355658 
L 93.665359 132.355658 
L 93.665359 114.662041 
" clip-path="url(#pd1205754a4)" style="fill: #fb6d4d"/>
    <path d="M 111.358976 114.662041 
L 129.052593 114.662041 
L 129.052593 132.355658 
L 111.358976 132.355658 
L 111.358976 114.662041 
" clip-path="url(#pd1205754a4)" style="fill: #fb8e71"/>
    <path d="M 58.278125 132.355658 
L 75.971742 132.355658 
L 75.971742 150.049275 
L 58.278125 150.049275 
L 58.278125 132.355658 
" clip-path="url(#pd1205754a4)" style="fill: #fcae93"/>
    <path d="M 75.971742 132.355658 
L 93.665359 132.355658 
L 93.665359 150.049275 
L 75.971742 150.049275 
L 75.971742 132.355658 
" clip-path="url(#pd1205754a4)" style="fill: #bb201f"/>
    <path d="M 93.665359 132.355658 
L 111.358976 132.355658 
L 111.358976 150.049275 
L 93.665359 150.049275 
L 93.665359 132.355658 
" clip-path="url(#pd1205754a4)" style="fill: #d12823"/>
    <path d="M 111.358976 132.355658 
L 129.052593 132.355658 
L 129.052593 150.049275 
L 111.358976 150.049275 
L 111.358976 132.355658 
" clip-path="url(#pd1205754a4)" style="fill: #d52a24"/>
    <path d="M 58.278125 150.049275 
L 75.971742 150.049275 
L 75.971742 167.742892 
L 58.278125 167.742892 
L 58.278125 150.049275 
" clip-path="url(#pd1205754a4)" style="fill: #fca488"/>
    <path d="M 75.971742 150.049275 
L 93.665359 150.049275 
L 93.665359 167.742892 
L 75.971742 167.742892 
L 75.971742 150.049275 
" clip-path="url(#pd1205754a4)" style="fill: #8e0f15"/>
    <path d="M 93.665359 150.049275 
L 111.358976 150.049275 
L 111.358976 167.742892 
L 93.665359 167.742892 
L 93.665359 150.049275 
" clip-path="url(#pd1205754a4)" style="fill: #8e0f15"/>
    <path d="M 111.358976 150.049275 
L 129.052593 150.049275 
L 129.052593 167.742892 
L 111.358976 167.742892 
L 111.358976 150.049275 
" clip-path="url(#pd1205754a4)" style="fill: #991318"/>
   </g>
   <g id="patch_7">
    <path d="M 75.971742 96.968424 
L 93.665359 96.968424 
L 93.665359 114.662041 
L 75.971742 114.662041 
L 75.971742 96.968424 
z
" clip-path="url(#pd1205754a4)" style="fill: none; stroke: #000000; stroke-linejoin: miter"/>
   </g>
   <g id="patch_8">
    <path d="M 93.665359 114.662041 
L 111.358976 114.662041 
L 111.358976 132.355658 
L 93.665359 132.355658 
L 93.665359 114.662041 
z
" clip-path="url(#pd1205754a4)" style="fill: none; stroke: #000000; stroke-linejoin: miter"/>
   </g>
   <g id="patch_9">
    <path d="M 111.358976 132.355658 
L 129.052593 132.355658 
L 129.052593 150.049275 
L 111.358976 150.049275 
L 111.358976 132.355658 
z
" clip-path="url(#pd1205754a4)" style="fill: none; stroke: #000000; stroke-linejoin: miter"/>
   </g>
   <g id="matplotlib.axis_3"/>
   <g id="matplotlib.axis_4">
    <g id="ytick_5">
     <g id="line2d_5">
      <g>
       <use xlink:href="#m3b9747153f" x="58.278125" y="96.968424" style="stroke: #000000; stroke-width: 0.8"/>
      </g>
     </g>
     <g id="text_6">
      <!-- $M_0$-$M_1$ -->
      <g transform="translate(20.878125 99.727799) scale(0.1 -0.1)">
       <use xlink:href="#DejaVuSans-Oblique-4d" transform="translate(0 0.09375)"/>
       <use xlink:href="#DejaVuSans-30" transform="translate(86.279297 -16.3125) scale(0.7)"/>
       <use xlink:href="#DejaVuSans-2d" transform="translate(133.549805 0.09375)"/>
       <use xlink:href="#DejaVuSans-Oblique-4d" transform="translate(169.633789 0.09375)"/>
       <use xlink:href="#DejaVuSans-31" transform="translate(255.913086 -16.3125) scale(0.7)"/>
      </g>
     </g>
    </g>
    <g id="ytick_6">
     <g id="line2d_6">
      <g>
       <use xlink:href="#m3b9747153f" x="58.278125" y="114.662041" style="stroke: #000000; stroke-width: 0.8"/>
      </g>
     </g>
     <g id="text_7">
      <!-- $M_0$-$M_2$ -->
      <g transform="translate(20.878125 117.421416) scale(0.1 -0.1)">
       <use xlink:href="#DejaVuSans-Oblique-4d" transform="translate(0 0.09375)"/>
       <use xlink:href="#DejaVuSans-30" transform="translate(86.279297 -16.3125) scale(0.7)"/>
       <use xlink:href="#DejaVuSans-2d" transform="translate(133.549805 0.09375)"/>
       <use xlink:href="#DejaVuSans-Oblique-4d" transform="translate(169.633789 0.09375)"/>
       <use xlink:href="#DejaVuSans-32" transform="translate(255.913086 -16.3125) scale(0.7)"/>
      </g>
     </g>
    </g>
    <g id="ytick_7">
     <g id="line2d_7">
      <g>
       <use xlink:href="#m3b9747153f" x="58.278125" y="132.355658" style="stroke: #000000; stroke-width: 0.8"/>
      </g>
     </g>
     <g id="text_8">
      <!-- $M_0$-$M_3$ -->
      <g transform="translate(20.878125 135.115033) scale(0.1 -0.1)">
       <use xlink:href="#DejaVuSans-Oblique-4d" transform="translate(0 0.09375)"/>
       <use xlink:href="#DejaVuSans-30" transform="translate(86.279297 -16.3125) scale(0.7)"/>
       <use xlink:href="#DejaVuSans-2d" transform="translate(133.549805 0.09375)"/>
       <use xlink:href="#DejaVuSans-Oblique-4d" transform="translate(169.633789 0.09375)"/>
       <use xlink:href="#DejaVuSans-33" transform="translate(255.913086 -16.3125) scale(0.7)"/>
      </g>
     </g>
    </g>
    <g id="ytick_8">
     <g id="line2d_8">
      <g>
       <use xlink:href="#m3b9747153f" x="58.278125" y="150.049275" style="stroke: #000000; stroke-width: 0.8"/>
      </g>
     </g>
     <g id="text_9">
      <!-- $M_0$-$M_4$ -->
      <g transform="translate(20.878125 152.80865) scale(0.1 -0.1)">
       <use xlink:href="#DejaVuSans-Oblique-4d" transform="translate(0 0.09375)"/>
       <use xlink:href="#DejaVuSans-30" transform="translate(86.279297 -16.3125) scale(0.7)"/>
       <use xlink:href="#DejaVuSans-2d" transform="translate(133.549805 0.09375)"/>
       <use xlink:href="#DejaVuSans-Oblique-4d" transform="translate(169.633789 0.09375)"/>
       <use xlink:href="#DejaVuSans-34" transform="translate(255.913086 -16.3125) scale(0.7)"/>
      </g>
     </g>
    </g>
    <g id="text_10">
     <!-- RF -->
     <g transform="translate(14.798438 138.705658) rotate(-90) scale(0.1 -0.1)">
      <defs>
       <path id="DejaVuSans-52" d="M 2841 2188 
Q 3044 2119 3236 1894 
Q 3428 1669 3622 1275 
L 4263 0 
L 3584 0 
L 2988 1197 
Q 2756 1666 2539 1819 
Q 2322 1972 1947 1972 
L 1259 1972 
L 1259 0 
L 628 0 
L 628 4666 
L 2053 4666 
Q 2853 4666 3247 4331 
Q 3641 3997 3641 3322 
Q 3641 2881 3436 2590 
Q 3231 2300 2841 2188 
z
M 1259 4147 
L 1259 2491 
L 2053 2491 
Q 2509 2491 2742 2702 
Q 2975 2913 2975 3322 
Q 2975 3731 2742 3939 
Q 2509 4147 2053 4147 
L 1259 4147 
z
" transform="scale(0.015625)"/>
       <path id="DejaVuSans-46" d="M 628 4666 
L 3309 4666 
L 3309 4134 
L 1259 4134 
L 1259 2759 
L 3109 2759 
L 3109 2228 
L 1259 2228 
L 1259 0 
L 628 0 
L 628 4666 
z
" transform="scale(0.015625)"/>
      </defs>
      <use xlink:href="#DejaVuSans-52"/>
      <use xlink:href="#DejaVuSans-46" x="69.482422"/>
     </g>
    </g>
   </g>
  </g>
  <g id="axes_3">
   <g id="patch_10">
    <path d="M 58.278125 252.672254 
L 129.052593 252.672254 
L 129.052593 181.897786 
L 58.278125 181.897786 
z
" style="fill: #ffffff"/>
   </g>
   <g id="QuadMesh_3">
    <path d="M 58.278125 181.897786 
L 75.971742 181.897786 
L 75.971742 199.591403 
L 58.278125 199.591403 
L 58.278125 181.897786 
" clip-path="url(#pf83c41f920)" style="fill: #fcc0a8"/>
    <path d="M 75.971742 181.897786 
L 93.665359 181.897786 
L 93.665359 199.591403 
L 75.971742 199.591403 
L 75.971742 181.897786 
" clip-path="url(#pf83c41f920)" style="fill: #fcd6c7"/>
    <path d="M 93.665359 181.897786 
L 111.358976 181.897786 
L 111.358976 199.591403 
L 93.665359 199.591403 
L 93.665359 181.897786 
" clip-path="url(#pf83c41f920)" style="fill: #fce4da"/>
    <path d="M 111.358976 181.897786 
L 129.052593 181.897786 
L 129.052593 199.591403 
L 111.358976 199.591403 
L 111.358976 181.897786 
" clip-path="url(#pf83c41f920)" style="fill: #fce4da"/>
    <path d="M 58.278125 199.591403 
L 75.971742 199.591403 
L 75.971742 217.28502 
L 58.278125 217.28502 
L 58.278125 199.591403 
" clip-path="url(#pf83c41f920)" style="fill: #fc9376"/>
    <path d="M 75.971742 199.591403 
L 93.665359 199.591403 
L 93.665359 217.28502 
L 75.971742 217.28502 
L 75.971742 199.591403 
" clip-path="url(#pf83c41f920)" style="fill: #fca88c"/>
    <path d="M 93.665359 199.591403 
L 111.358976 199.591403 
L 111.358976 217.28502 
L 93.665359 217.28502 
L 93.665359 199.591403 
" clip-path="url(#pf83c41f920)" style="fill: #fb7050"/>
    <path d="M 111.358976 199.591403 
L 129.052593 199.591403 
L 129.052593 217.28502 
L 111.358976 217.28502 
L 111.358976 199.591403 
" clip-path="url(#pf83c41f920)" style="fill: #fb9275"/>
    <path d="M 58.278125 217.28502 
L 75.971742 217.28502 
L 75.971742 234.978637 
L 58.278125 234.978637 
L 58.278125 217.28502 
" clip-path="url(#pf83c41f920)" style="fill: #fcd6c7"/>
    <path d="M 75.971742 217.28502 
L 93.665359 217.28502 
L 93.665359 234.978637 
L 75.971742 234.978637 
L 75.971742 217.28502 
" clip-path="url(#pf83c41f920)" style="fill: #ca2522"/>
    <path d="M 93.665359 217.28502 
L 111.358976 217.28502 
L 111.358976 234.978637 
L 93.665359 234.978637 
L 93.665359 217.28502 
" clip-path="url(#pf83c41f920)" style="fill: #cc2622"/>
    <path d="M 111.358976 217.28502 
L 129.052593 217.28502 
L 129.052593 234.978637 
L 111.358976 234.978637 
L 111.358976 217.28502 
" clip-path="url(#pf83c41f920)" style="fill: #ce2723"/>
    <path d="M 58.278125 234.978637 
L 75.971742 234.978637 
L 75.971742 252.672254 
L 58.278125 252.672254 
L 58.278125 234.978637 
" clip-path="url(#pf83c41f920)" style="fill: #fccfbd"/>
    <path d="M 75.971742 234.978637 
L 93.665359 234.978637 
L 93.665359 252.672254 
L 75.971742 252.672254 
L 75.971742 234.978637 
" clip-path="url(#pf83c41f920)" style="fill: #9b1418"/>
    <path d="M 93.665359 234.978637 
L 111.358976 234.978637 
L 111.358976 252.672254 
L 93.665359 252.672254 
L 93.665359 234.978637 
" clip-path="url(#pf83c41f920)" style="fill: #830b13"/>
    <path d="M 111.358976 234.978637 
L 129.052593 234.978637 
L 129.052593 252.672254 
L 111.358976 252.672254 
L 111.358976 234.978637 
" clip-path="url(#pf83c41f920)" style="fill: #890d14"/>
   </g>
   <g id="patch_11">
    <path d="M 75.971742 181.897786 
L 93.665359 181.897786 
L 93.665359 199.591403 
L 75.971742 199.591403 
L 75.971742 181.897786 
z
" clip-path="url(#pf83c41f920)" style="fill: none; stroke: #000000; stroke-linejoin: miter"/>
   </g>
   <g id="patch_12">
    <path d="M 93.665359 199.591403 
L 111.358976 199.591403 
L 111.358976 217.28502 
L 93.665359 217.28502 
L 93.665359 199.591403 
z
" clip-path="url(#pf83c41f920)" style="fill: none; stroke: #000000; stroke-linejoin: miter"/>
   </g>
   <g id="patch_13">
    <path d="M 111.358976 217.28502 
L 129.052593 217.28502 
L 129.052593 234.978637 
L 111.358976 234.978637 
L 111.358976 217.28502 
z
" clip-path="url(#pf83c41f920)" style="fill: none; stroke: #000000; stroke-linejoin: miter"/>
   </g>
   <g id="matplotlib.axis_5"/>
   <g id="matplotlib.axis_6">
    <g id="ytick_9">
     <g id="line2d_9">
      <g>
       <use xlink:href="#m3b9747153f" x="58.278125" y="181.897786" style="stroke: #000000; stroke-width: 0.8"/>
      </g>
     </g>
     <g id="text_11">
      <!-- $M_0$-$M_1$ -->
      <g transform="translate(20.878125 184.657161) scale(0.1 -0.1)">
       <use xlink:href="#DejaVuSans-Oblique-4d" transform="translate(0 0.09375)"/>
       <use xlink:href="#DejaVuSans-30" transform="translate(86.279297 -16.3125) scale(0.7)"/>
       <use xlink:href="#DejaVuSans-2d" transform="translate(133.549805 0.09375)"/>
       <use xlink:href="#DejaVuSans-Oblique-4d" transform="translate(169.633789 0.09375)"/>
       <use xlink:href="#DejaVuSans-31" transform="translate(255.913086 -16.3125) scale(0.7)"/>
      </g>
     </g>
    </g>
    <g id="ytick_10">
     <g id="line2d_10">
      <g>
       <use xlink:href="#m3b9747153f" x="58.278125" y="199.591403" style="stroke: #000000; stroke-width: 0.8"/>
      </g>
     </g>
     <g id="text_12">
      <!-- $M_0$-$M_2$ -->
      <g transform="translate(20.878125 202.350778) scale(0.1 -0.1)">
       <use xlink:href="#DejaVuSans-Oblique-4d" transform="translate(0 0.09375)"/>
       <use xlink:href="#DejaVuSans-30" transform="translate(86.279297 -16.3125) scale(0.7)"/>
       <use xlink:href="#DejaVuSans-2d" transform="translate(133.549805 0.09375)"/>
       <use xlink:href="#DejaVuSans-Oblique-4d" transform="translate(169.633789 0.09375)"/>
       <use xlink:href="#DejaVuSans-32" transform="translate(255.913086 -16.3125) scale(0.7)"/>
      </g>
     </g>
    </g>
    <g id="ytick_11">
     <g id="line2d_11">
      <g>
       <use xlink:href="#m3b9747153f" x="58.278125" y="217.28502" style="stroke: #000000; stroke-width: 0.8"/>
      </g>
     </g>
     <g id="text_13">
      <!-- $M_0$-$M_3$ -->
      <g transform="translate(20.878125 220.044395) scale(0.1 -0.1)">
       <use xlink:href="#DejaVuSans-Oblique-4d" transform="translate(0 0.09375)"/>
       <use xlink:href="#DejaVuSans-30" transform="translate(86.279297 -16.3125) scale(0.7)"/>
       <use xlink:href="#DejaVuSans-2d" transform="translate(133.549805 0.09375)"/>
       <use xlink:href="#DejaVuSans-Oblique-4d" transform="translate(169.633789 0.09375)"/>
       <use xlink:href="#DejaVuSans-33" transform="translate(255.913086 -16.3125) scale(0.7)"/>
      </g>
     </g>
    </g>
    <g id="ytick_12">
     <g id="line2d_12">
      <g>
       <use xlink:href="#m3b9747153f" x="58.278125" y="234.978637" style="stroke: #000000; stroke-width: 0.8"/>
      </g>
     </g>
     <g id="text_14">
      <!-- $M_0$-$M_4$ -->
      <g transform="translate(20.878125 237.738012) scale(0.1 -0.1)">
       <use xlink:href="#DejaVuSans-Oblique-4d" transform="translate(0 0.09375)"/>
       <use xlink:href="#DejaVuSans-30" transform="translate(86.279297 -16.3125) scale(0.7)"/>
       <use xlink:href="#DejaVuSans-2d" transform="translate(133.549805 0.09375)"/>
       <use xlink:href="#DejaVuSans-Oblique-4d" transform="translate(169.633789 0.09375)"/>
       <use xlink:href="#DejaVuSans-34" transform="translate(255.913086 -16.3125) scale(0.7)"/>
      </g>
     </g>
    </g>
    <g id="text_15">
     <!-- GBT -->
     <g transform="translate(14.798438 227.643614) rotate(-90) scale(0.1 -0.1)">
      <defs>
       <path id="DejaVuSans-47" d="M 3809 666 
L 3809 1919 
L 2778 1919 
L 2778 2438 
L 4434 2438 
L 4434 434 
Q 4069 175 3628 42 
Q 3188 -91 2688 -91 
Q 1594 -91 976 548 
Q 359 1188 359 2328 
Q 359 3472 976 4111 
Q 1594 4750 2688 4750 
Q 3144 4750 3555 4637 
Q 3966 4525 4313 4306 
L 4313 3634 
Q 3963 3931 3569 4081 
Q 3175 4231 2741 4231 
Q 1884 4231 1454 3753 
Q 1025 3275 1025 2328 
Q 1025 1384 1454 906 
Q 1884 428 2741 428 
Q 3075 428 3337 486 
Q 3600 544 3809 666 
z
" transform="scale(0.015625)"/>
       <path id="DejaVuSans-42" d="M 1259 2228 
L 1259 519 
L 2272 519 
Q 2781 519 3026 730 
Q 3272 941 3272 1375 
Q 3272 1813 3026 2020 
Q 2781 2228 2272 2228 
L 1259 2228 
z
M 1259 4147 
L 1259 2741 
L 2194 2741 
Q 2656 2741 2882 2914 
Q 3109 3088 3109 3444 
Q 3109 3797 2882 3972 
Q 2656 4147 2194 4147 
L 1259 4147 
z
M 628 4666 
L 2241 4666 
Q 2963 4666 3353 4366 
Q 3744 4066 3744 3513 
Q 3744 3084 3544 2831 
Q 3344 2578 2956 2516 
Q 3422 2416 3680 2098 
Q 3938 1781 3938 1306 
Q 3938 681 3513 340 
Q 3088 0 2303 0 
L 628 0 
L 628 4666 
z
" transform="scale(0.015625)"/>
       <path id="DejaVuSans-54" d="M -19 4666 
L 3928 4666 
L 3928 4134 
L 2272 4134 
L 2272 0 
L 1638 0 
L 1638 4134 
L -19 4134 
L -19 4666 
z
" transform="scale(0.015625)"/>
      </defs>
      <use xlink:href="#DejaVuSans-47"/>
      <use xlink:href="#DejaVuSans-42" x="77.490234"/>
      <use xlink:href="#DejaVuSans-54" x="146.09375"/>
     </g>
    </g>
   </g>
  </g>
  <g id="axes_4">
   <g id="patch_14">
    <path d="M 58.278125 337.601616 
L 129.052593 337.601616 
L 129.052593 266.827148 
L 58.278125 266.827148 
z
" style="fill: #ffffff"/>
   </g>
   <g id="QuadMesh_4">
    <path d="M 58.278125 266.827148 
L 75.971742 266.827148 
L 75.971742 284.520765 
L 58.278125 284.520765 
L 58.278125 266.827148 
" clip-path="url(#p044f1c1a35)" style="fill: #fcfcfc"/>
    <path d="M 75.971742 266.827148 
L 93.665359 266.827148 
L 93.665359 284.520765 
L 75.971742 284.520765 
L 75.971742 266.827148 
" clip-path="url(#p044f1c1a35)" style="fill: #fcfcfc"/>
    <path d="M 93.665359 266.827148 
L 111.358976 266.827148 
L 111.358976 284.520765 
L 93.665359 284.520765 
L 93.665359 266.827148 
" clip-path="url(#p044f1c1a35)" style="fill: #fcf5f2"/>
    <path d="M 111.358976 266.827148 
L 129.052593 266.827148 
L 129.052593 284.520765 
L 111.358976 284.520765 
L 111.358976 266.827148 
" clip-path="url(#p044f1c1a35)" style="fill: #fcf7f5"/>
    <path d="M 58.278125 284.520765 
L 75.971742 284.520765 
L 75.971742 302.214382 
L 58.278125 302.214382 
L 58.278125 284.520765 
" clip-path="url(#p044f1c1a35)" style="fill: #fcd2c1"/>
    <path d="M 75.971742 284.520765 
L 93.665359 284.520765 
L 93.665359 302.214382 
L 75.971742 302.214382 
L 75.971742 284.520765 
" clip-path="url(#p044f1c1a35)" style="fill: #fb7050"/>
    <path d="M 93.665359 284.520765 
L 111.358976 284.520765 
L 111.358976 302.214382 
L 93.665359 302.214382 
L 93.665359 284.520765 
" clip-path="url(#p044f1c1a35)" style="fill: #fb6d4d"/>
    <path d="M 111.358976 284.520765 
L 129.052593 284.520765 
L 129.052593 302.214382 
L 111.358976 302.214382 
L 111.358976 284.520765 
" clip-path="url(#p044f1c1a35)" style="fill: #fc977a"/>
    <path d="M 58.278125 302.214382 
L 75.971742 302.214382 
L 75.971742 319.907999 
L 58.278125 319.907999 
L 58.278125 302.214382 
" clip-path="url(#p044f1c1a35)" style="fill: #fcece5"/>
    <path d="M 75.971742 302.214382 
L 93.665359 302.214382 
L 93.665359 319.907999 
L 75.971742 319.907999 
L 75.971742 302.214382 
" clip-path="url(#p044f1c1a35)" style="fill: #760610"/>
    <path d="M 93.665359 302.214382 
L 111.358976 302.214382 
L 111.358976 319.907999 
L 93.665359 319.907999 
L 93.665359 302.214382 
" clip-path="url(#p044f1c1a35)" style="fill: #7f0912"/>
    <path d="M 111.358976 302.214382 
L 129.052593 302.214382 
L 129.052593 319.907999 
L 111.358976 319.907999 
L 111.358976 302.214382 
" clip-path="url(#p044f1c1a35)" style="fill: #a3171a"/>
    <path d="M 58.278125 319.907999 
L 75.971742 319.907999 
L 75.971742 337.601616 
L 58.278125 337.601616 
L 58.278125 319.907999 
" clip-path="url(#p044f1c1a35)" style="fill: #fceae2"/>
    <path d="M 75.971742 319.907999 
L 93.665359 319.907999 
L 93.665359 337.601616 
L 75.971742 337.601616 
L 75.971742 319.907999 
" clip-path="url(#p044f1c1a35)" style="fill: #6b010e"/>
    <path d="M 93.665359 319.907999 
L 111.358976 319.907999 
L 111.358976 337.601616 
L 93.665359 337.601616 
L 93.665359 319.907999 
" clip-path="url(#p044f1c1a35)" style="fill: #6d020e"/>
    <path d="M 111.358976 319.907999 
L 129.052593 319.907999 
L 129.052593 337.601616 
L 111.358976 337.601616 
L 111.358976 319.907999 
" clip-path="url(#p044f1c1a35)" style="fill: #6d020e"/>
   </g>
   <g id="patch_15">
    <path d="M 75.971742 266.827148 
L 93.665359 266.827148 
L 93.665359 284.520765 
L 75.971742 284.520765 
L 75.971742 266.827148 
z
" clip-path="url(#p044f1c1a35)" style="fill: none; stroke: #000000; stroke-linejoin: miter"/>
   </g>
   <g id="patch_16">
    <path d="M 93.665359 284.520765 
L 111.358976 284.520765 
L 111.358976 302.214382 
L 93.665359 302.214382 
L 93.665359 284.520765 
z
" clip-path="url(#p044f1c1a35)" style="fill: none; stroke: #000000; stroke-linejoin: miter"/>
   </g>
   <g id="patch_17">
    <path d="M 111.358976 302.214382 
L 129.052593 302.214382 
L 129.052593 319.907999 
L 111.358976 319.907999 
L 111.358976 302.214382 
z
" clip-path="url(#p044f1c1a35)" style="fill: none; stroke: #000000; stroke-linejoin: miter"/>
   </g>
   <g id="matplotlib.axis_7"/>
   <g id="matplotlib.axis_8">
    <g id="ytick_13">
     <g id="line2d_13">
      <g>
       <use xlink:href="#m3b9747153f" x="58.278125" y="266.827148" style="stroke: #000000; stroke-width: 0.8"/>
      </g>
     </g>
     <g id="text_16">
      <!-- $M_0$-$M_1$ -->
      <g transform="translate(20.878125 269.586523) scale(0.1 -0.1)">
       <use xlink:href="#DejaVuSans-Oblique-4d" transform="translate(0 0.09375)"/>
       <use xlink:href="#DejaVuSans-30" transform="translate(86.279297 -16.3125) scale(0.7)"/>
       <use xlink:href="#DejaVuSans-2d" transform="translate(133.549805 0.09375)"/>
       <use xlink:href="#DejaVuSans-Oblique-4d" transform="translate(169.633789 0.09375)"/>
       <use xlink:href="#DejaVuSans-31" transform="translate(255.913086 -16.3125) scale(0.7)"/>
      </g>
     </g>
    </g>
    <g id="ytick_14">
     <g id="line2d_14">
      <g>
       <use xlink:href="#m3b9747153f" x="58.278125" y="284.520765" style="stroke: #000000; stroke-width: 0.8"/>
      </g>
     </g>
     <g id="text_17">
      <!-- $M_0$-$M_2$ -->
      <g transform="translate(20.878125 287.28014) scale(0.1 -0.1)">
       <use xlink:href="#DejaVuSans-Oblique-4d" transform="translate(0 0.09375)"/>
       <use xlink:href="#DejaVuSans-30" transform="translate(86.279297 -16.3125) scale(0.7)"/>
       <use xlink:href="#DejaVuSans-2d" transform="translate(133.549805 0.09375)"/>
       <use xlink:href="#DejaVuSans-Oblique-4d" transform="translate(169.633789 0.09375)"/>
       <use xlink:href="#DejaVuSans-32" transform="translate(255.913086 -16.3125) scale(0.7)"/>
      </g>
     </g>
    </g>
    <g id="ytick_15">
     <g id="line2d_15">
      <g>
       <use xlink:href="#m3b9747153f" x="58.278125" y="302.214382" style="stroke: #000000; stroke-width: 0.8"/>
      </g>
     </g>
     <g id="text_18">
      <!-- $M_0$-$M_3$ -->
      <g transform="translate(20.878125 304.973757) scale(0.1 -0.1)">
       <use xlink:href="#DejaVuSans-Oblique-4d" transform="translate(0 0.09375)"/>
       <use xlink:href="#DejaVuSans-30" transform="translate(86.279297 -16.3125) scale(0.7)"/>
       <use xlink:href="#DejaVuSans-2d" transform="translate(133.549805 0.09375)"/>
       <use xlink:href="#DejaVuSans-Oblique-4d" transform="translate(169.633789 0.09375)"/>
       <use xlink:href="#DejaVuSans-33" transform="translate(255.913086 -16.3125) scale(0.7)"/>
      </g>
     </g>
    </g>
    <g id="ytick_16">
     <g id="line2d_16">
      <g>
       <use xlink:href="#m3b9747153f" x="58.278125" y="319.907999" style="stroke: #000000; stroke-width: 0.8"/>
      </g>
     </g>
     <g id="text_19">
      <!-- $M_0$-$M_4$ -->
      <g transform="translate(20.878125 322.667374) scale(0.1 -0.1)">
       <use xlink:href="#DejaVuSans-Oblique-4d" transform="translate(0 0.09375)"/>
       <use xlink:href="#DejaVuSans-30" transform="translate(86.279297 -16.3125) scale(0.7)"/>
       <use xlink:href="#DejaVuSans-2d" transform="translate(133.549805 0.09375)"/>
       <use xlink:href="#DejaVuSans-Oblique-4d" transform="translate(169.633789 0.09375)"/>
       <use xlink:href="#DejaVuSans-34" transform="translate(255.913086 -16.3125) scale(0.7)"/>
      </g>
     </g>
    </g>
    <g id="text_20">
     <!-- MLP -->
     <g transform="translate(14.798438 312.329225) rotate(-90) scale(0.1 -0.1)">
      <defs>
       <path id="DejaVuSans-4d" d="M 628 4666 
L 1569 4666 
L 2759 1491 
L 3956 4666 
L 4897 4666 
L 4897 0 
L 4281 0 
L 4281 4097 
L 3078 897 
L 2444 897 
L 1241 4097 
L 1241 0 
L 628 0 
L 628 4666 
z
" transform="scale(0.015625)"/>
       <path id="DejaVuSans-50" d="M 1259 4147 
L 1259 2394 
L 2053 2394 
Q 2494 2394 2734 2622 
Q 2975 2850 2975 3272 
Q 2975 3691 2734 3919 
Q 2494 4147 2053 4147 
L 1259 4147 
z
M 628 4666 
L 2053 4666 
Q 2838 4666 3239 4311 
Q 3641 3956 3641 3272 
Q 3641 2581 3239 2228 
Q 2838 1875 2053 1875 
L 1259 1875 
L 1259 0 
L 628 0 
L 628 4666 
z
" transform="scale(0.015625)"/>
      </defs>
      <use xlink:href="#DejaVuSans-4d"/>
      <use xlink:href="#DejaVuSans-4c" x="86.279297"/>
      <use xlink:href="#DejaVuSans-50" x="141.992188"/>
     </g>
    </g>
   </g>
  </g>
  <g id="axes_5">
   <g id="patch_18">
    <path d="M 58.278125 422.530977 
L 129.052593 422.530977 
L 129.052593 351.756509 
L 58.278125 351.756509 
z
" style="fill: #ffffff"/>
   </g>
   <g id="QuadMesh_5">
    <path d="M 58.278125 351.756509 
L 75.971742 351.756509 
L 75.971742 369.450126 
L 58.278125 369.450126 
L 58.278125 351.756509 
" clip-path="url(#pb621c74d2d)" style="fill: #fcd4c4"/>
    <path d="M 75.971742 351.756509 
L 93.665359 351.756509 
L 93.665359 369.450126 
L 75.971742 369.450126 
L 75.971742 351.756509 
" clip-path="url(#pb621c74d2d)" style="fill: #fcfcfc"/>
    <path d="M 93.665359 351.756509 
L 111.358976 351.756509 
L 111.358976 369.450126 
L 93.665359 369.450126 
L 93.665359 351.756509 
" clip-path="url(#pb621c74d2d)" style="fill: #fcf0eb"/>
    <path d="M 111.358976 351.756509 
L 129.052593 351.756509 
L 129.052593 369.450126 
L 111.358976 369.450126 
L 111.358976 351.756509 
" clip-path="url(#pb621c74d2d)" style="fill: #fcf2ee"/>
    <path d="M 58.278125 369.450126 
L 75.971742 369.450126 
L 75.971742 387.143743 
L 58.278125 387.143743 
L 58.278125 369.450126 
" clip-path="url(#pb621c74d2d)" style="fill: #fce8df"/>
    <path d="M 75.971742 369.450126 
L 93.665359 369.450126 
L 93.665359 387.143743 
L 75.971742 387.143743 
L 75.971742 369.450126 
" clip-path="url(#pb621c74d2d)" style="fill: #fb7050"/>
    <path d="M 93.665359 369.450126 
L 111.358976 369.450126 
L 111.358976 387.143743 
L 93.665359 387.143743 
L 93.665359 369.450126 
" clip-path="url(#pb621c74d2d)" style="fill: #fb7454"/>
    <path d="M 111.358976 369.450126 
L 129.052593 369.450126 
L 129.052593 387.143743 
L 111.358976 387.143743 
L 111.358976 369.450126 
" clip-path="url(#pb621c74d2d)" style="fill: #fc9376"/>
    <path d="M 58.278125 387.143743 
L 75.971742 387.143743 
L 75.971742 404.83736 
L 58.278125 404.83736 
L 58.278125 387.143743 
" clip-path="url(#pb621c74d2d)" style="fill: #fca68b"/>
    <path d="M 75.971742 387.143743 
L 93.665359 387.143743 
L 93.665359 404.83736 
L 75.971742 404.83736 
L 75.971742 387.143743 
" clip-path="url(#pb621c74d2d)" style="fill: #7c0811"/>
    <path d="M 93.665359 387.143743 
L 111.358976 387.143743 
L 111.358976 404.83736 
L 93.665359 404.83736 
L 93.665359 387.143743 
" clip-path="url(#pb621c74d2d)" style="fill: #7c0811"/>
    <path d="M 111.358976 387.143743 
L 129.052593 387.143743 
L 129.052593 404.83736 
L 111.358976 404.83736 
L 111.358976 387.143743 
" clip-path="url(#pb621c74d2d)" style="fill: #cc2622"/>
    <path d="M 58.278125 404.83736 
L 75.971742 404.83736 
L 75.971742 422.530977 
L 58.278125 422.530977 
L 58.278125 404.83736 
" clip-path="url(#pb621c74d2d)" style="fill: #fccab6"/>
    <path d="M 75.971742 404.83736 
L 93.665359 404.83736 
L 93.665359 422.530977 
L 75.971742 422.530977 
L 75.971742 404.83736 
" clip-path="url(#pb621c74d2d)" style="fill: #72040f"/>
    <path d="M 93.665359 404.83736 
L 111.358976 404.83736 
L 111.358976 422.530977 
L 93.665359 422.530977 
L 93.665359 404.83736 
" clip-path="url(#pb621c74d2d)" style="fill: #740510"/>
    <path d="M 111.358976 404.83736 
L 129.052593 404.83736 
L 129.052593 422.530977 
L 111.358976 422.530977 
L 111.358976 404.83736 
" clip-path="url(#pb621c74d2d)" style="fill: #70040f"/>
   </g>
   <g id="patch_19">
    <path d="M 75.971742 351.756509 
L 93.665359 351.756509 
L 93.665359 369.450126 
L 75.971742 369.450126 
L 75.971742 351.756509 
z
" clip-path="url(#pb621c74d2d)" style="fill: none; stroke: #000000; stroke-linejoin: miter"/>
   </g>
   <g id="patch_20">
    <path d="M 93.665359 369.450126 
L 111.358976 369.450126 
L 111.358976 387.143743 
L 93.665359 387.143743 
L 93.665359 369.450126 
z
" clip-path="url(#pb621c74d2d)" style="fill: none; stroke: #000000; stroke-linejoin: miter"/>
   </g>
   <g id="patch_21">
    <path d="M 111.358976 387.143743 
L 129.052593 387.143743 
L 129.052593 404.83736 
L 111.358976 404.83736 
L 111.358976 387.143743 
z
" clip-path="url(#pb621c74d2d)" style="fill: none; stroke: #000000; stroke-linejoin: miter"/>
   </g>
   <g id="matplotlib.axis_9"/>
   <g id="matplotlib.axis_10">
    <g id="ytick_17">
     <g id="line2d_17">
      <g>
       <use xlink:href="#m3b9747153f" x="58.278125" y="351.756509" style="stroke: #000000; stroke-width: 0.8"/>
      </g>
     </g>
     <g id="text_21">
      <!-- $M_0$-$M_1$ -->
      <g transform="translate(20.878125 354.515884) scale(0.1 -0.1)">
       <use xlink:href="#DejaVuSans-Oblique-4d" transform="translate(0 0.09375)"/>
       <use xlink:href="#DejaVuSans-30" transform="translate(86.279297 -16.3125) scale(0.7)"/>
       <use xlink:href="#DejaVuSans-2d" transform="translate(133.549805 0.09375)"/>
       <use xlink:href="#DejaVuSans-Oblique-4d" transform="translate(169.633789 0.09375)"/>
       <use xlink:href="#DejaVuSans-31" transform="translate(255.913086 -16.3125) scale(0.7)"/>
      </g>
     </g>
    </g>
    <g id="ytick_18">
     <g id="line2d_18">
      <g>
       <use xlink:href="#m3b9747153f" x="58.278125" y="369.450126" style="stroke: #000000; stroke-width: 0.8"/>
      </g>
     </g>
     <g id="text_22">
      <!-- $M_0$-$M_2$ -->
      <g transform="translate(20.878125 372.209501) scale(0.1 -0.1)">
       <use xlink:href="#DejaVuSans-Oblique-4d" transform="translate(0 0.09375)"/>
       <use xlink:href="#DejaVuSans-30" transform="translate(86.279297 -16.3125) scale(0.7)"/>
       <use xlink:href="#DejaVuSans-2d" transform="translate(133.549805 0.09375)"/>
       <use xlink:href="#DejaVuSans-Oblique-4d" transform="translate(169.633789 0.09375)"/>
       <use xlink:href="#DejaVuSans-32" transform="translate(255.913086 -16.3125) scale(0.7)"/>
      </g>
     </g>
    </g>
    <g id="ytick_19">
     <g id="line2d_19">
      <g>
       <use xlink:href="#m3b9747153f" x="58.278125" y="387.143743" style="stroke: #000000; stroke-width: 0.8"/>
      </g>
     </g>
     <g id="text_23">
      <!-- $M_0$-$M_3$ -->
      <g transform="translate(20.878125 389.903118) scale(0.1 -0.1)">
       <use xlink:href="#DejaVuSans-Oblique-4d" transform="translate(0 0.09375)"/>
       <use xlink:href="#DejaVuSans-30" transform="translate(86.279297 -16.3125) scale(0.7)"/>
       <use xlink:href="#DejaVuSans-2d" transform="translate(133.549805 0.09375)"/>
       <use xlink:href="#DejaVuSans-Oblique-4d" transform="translate(169.633789 0.09375)"/>
       <use xlink:href="#DejaVuSans-33" transform="translate(255.913086 -16.3125) scale(0.7)"/>
      </g>
     </g>
    </g>
    <g id="ytick_20">
     <g id="line2d_20">
      <g>
       <use xlink:href="#m3b9747153f" x="58.278125" y="404.83736" style="stroke: #000000; stroke-width: 0.8"/>
      </g>
     </g>
     <g id="text_24">
      <!-- $M_0$-$M_4$ -->
      <g transform="translate(20.878125 407.596735) scale(0.1 -0.1)">
       <use xlink:href="#DejaVuSans-Oblique-4d" transform="translate(0 0.09375)"/>
       <use xlink:href="#DejaVuSans-30" transform="translate(86.279297 -16.3125) scale(0.7)"/>
       <use xlink:href="#DejaVuSans-2d" transform="translate(133.549805 0.09375)"/>
       <use xlink:href="#DejaVuSans-Oblique-4d" transform="translate(169.633789 0.09375)"/>
       <use xlink:href="#DejaVuSans-34" transform="translate(255.913086 -16.3125) scale(0.7)"/>
      </g>
     </g>
    </g>
    <g id="text_25">
     <!-- CNN -->
     <g transform="translate(14.798438 398.1164) rotate(-90) scale(0.1 -0.1)">
      <defs>
       <path id="DejaVuSans-43" d="M 4122 4306 
L 4122 3641 
Q 3803 3938 3442 4084 
Q 3081 4231 2675 4231 
Q 1875 4231 1450 3742 
Q 1025 3253 1025 2328 
Q 1025 1406 1450 917 
Q 1875 428 2675 428 
Q 3081 428 3442 575 
Q 3803 722 4122 1019 
L 4122 359 
Q 3791 134 3420 21 
Q 3050 -91 2638 -91 
Q 1578 -91 968 557 
Q 359 1206 359 2328 
Q 359 3453 968 4101 
Q 1578 4750 2638 4750 
Q 3056 4750 3426 4639 
Q 3797 4528 4122 4306 
z
" transform="scale(0.015625)"/>
       <path id="DejaVuSans-4e" d="M 628 4666 
L 1478 4666 
L 3547 763 
L 3547 4666 
L 4159 4666 
L 4159 0 
L 3309 0 
L 1241 3903 
L 1241 0 
L 628 0 
L 628 4666 
z
" transform="scale(0.015625)"/>
      </defs>
      <use xlink:href="#DejaVuSans-43"/>
      <use xlink:href="#DejaVuSans-4e" x="69.824219"/>
      <use xlink:href="#DejaVuSans-4e" x="144.628906"/>
     </g>
    </g>
   </g>
  </g>
  <g id="axes_6">
   <g id="patch_22">
    <path d="M 58.278125 507.460339 
L 129.052593 507.460339 
L 129.052593 436.685871 
L 58.278125 436.685871 
z
" style="fill: #ffffff"/>
   </g>
   <g id="QuadMesh_6">
    <path d="M 58.278125 436.685871 
L 75.971742 436.685871 
L 75.971742 454.379488 
L 58.278125 454.379488 
L 58.278125 436.685871 
" clip-path="url(#pee41c235b1)" style="fill: #fcfcfc"/>
    <path d="M 75.971742 436.685871 
L 93.665359 436.685871 
L 93.665359 454.379488 
L 75.971742 454.379488 
L 75.971742 436.685871 
" clip-path="url(#pee41c235b1)" style="fill: #fcf8f6"/>
    <path d="M 93.665359 436.685871 
L 111.358976 436.685871 
L 111.358976 454.379488 
L 93.665359 454.379488 
L 93.665359 436.685871 
" clip-path="url(#pee41c235b1)" style="fill: #fcfcfc"/>
    <path d="M 111.358976 436.685871 
L 129.052593 436.685871 
L 129.052593 454.379488 
L 111.358976 454.379488 
L 111.358976 436.685871 
" clip-path="url(#pee41c235b1)" style="fill: #fcfcfc"/>
    <path d="M 58.278125 454.379488 
L 75.971742 454.379488 
L 75.971742 472.073105 
L 58.278125 472.073105 
L 58.278125 454.379488 
" clip-path="url(#pee41c235b1)" style="fill: #fcf4f1"/>
    <path d="M 75.971742 454.379488 
L 93.665359 454.379488 
L 93.665359 472.073105 
L 75.971742 472.073105 
L 75.971742 454.379488 
" clip-path="url(#pee41c235b1)" style="fill: #fcb196"/>
    <path d="M 93.665359 454.379488 
L 111.358976 454.379488 
L 111.358976 472.073105 
L 93.665359 472.073105 
L 93.665359 454.379488 
" clip-path="url(#pee41c235b1)" style="fill: #fc987c"/>
    <path d="M 111.358976 454.379488 
L 129.052593 454.379488 
L 129.052593 472.073105 
L 111.358976 472.073105 
L 111.358976 454.379488 
" clip-path="url(#pee41c235b1)" style="fill: #fca88c"/>
    <path d="M 58.278125 472.073105 
L 75.971742 472.073105 
L 75.971742 489.766722 
L 58.278125 489.766722 
L 58.278125 472.073105 
" clip-path="url(#pee41c235b1)" style="fill: #fcd6c7"/>
    <path d="M 75.971742 472.073105 
L 93.665359 472.073105 
L 93.665359 489.766722 
L 75.971742 489.766722 
L 75.971742 472.073105 
" clip-path="url(#pee41c235b1)" style="fill: #7a0711"/>
    <path d="M 93.665359 472.073105 
L 111.358976 472.073105 
L 111.358976 489.766722 
L 93.665359 489.766722 
L 93.665359 472.073105 
" clip-path="url(#pee41c235b1)" style="fill: #830b13"/>
    <path d="M 111.358976 472.073105 
L 129.052593 472.073105 
L 129.052593 489.766722 
L 111.358976 489.766722 
L 111.358976 472.073105 
" clip-path="url(#pee41c235b1)" style="fill: #bb201f"/>
    <path d="M 58.278125 489.766722 
L 75.971742 489.766722 
L 75.971742 507.460339 
L 58.278125 507.460339 
L 58.278125 489.766722 
" clip-path="url(#pee41c235b1)" style="fill: #fb8c6e"/>
    <path d="M 75.971742 489.766722 
L 93.665359 489.766722 
L 93.665359 507.460339 
L 75.971742 507.460339 
L 75.971742 489.766722 
" clip-path="url(#pee41c235b1)" style="fill: #6e030f"/>
    <path d="M 93.665359 489.766722 
L 111.358976 489.766722 
L 111.358976 507.460339 
L 93.665359 507.460339 
L 93.665359 489.766722 
" clip-path="url(#pee41c235b1)" style="fill: #6d020e"/>
    <path d="M 111.358976 489.766722 
L 129.052593 489.766722 
L 129.052593 507.460339 
L 111.358976 507.460339 
L 111.358976 489.766722 
" clip-path="url(#pee41c235b1)" style="fill: #6d020e"/>
   </g>
   <g id="patch_23">
    <path d="M 75.971742 436.685871 
L 93.665359 436.685871 
L 93.665359 454.379488 
L 75.971742 454.379488 
L 75.971742 436.685871 
z
" clip-path="url(#pee41c235b1)" style="fill: none; stroke: #000000; stroke-linejoin: miter"/>
   </g>
   <g id="patch_24">
    <path d="M 93.665359 454.379488 
L 111.358976 454.379488 
L 111.358976 472.073105 
L 93.665359 472.073105 
L 93.665359 454.379488 
z
" clip-path="url(#pee41c235b1)" style="fill: none; stroke: #000000; stroke-linejoin: miter"/>
   </g>
   <g id="patch_25">
    <path d="M 111.358976 472.073105 
L 129.052593 472.073105 
L 129.052593 489.766722 
L 111.358976 489.766722 
L 111.358976 472.073105 
z
" clip-path="url(#pee41c235b1)" style="fill: none; stroke: #000000; stroke-linejoin: miter"/>
   </g>
   <g id="matplotlib.axis_11"/>
   <g id="matplotlib.axis_12">
    <g id="ytick_21">
     <g id="line2d_21">
      <g>
       <use xlink:href="#m3b9747153f" x="58.278125" y="436.685871" style="stroke: #000000; stroke-width: 0.8"/>
      </g>
     </g>
     <g id="text_26">
      <!-- $M_0$-$M_1$ -->
      <g transform="translate(20.878125 439.445246) scale(0.1 -0.1)">
       <use xlink:href="#DejaVuSans-Oblique-4d" transform="translate(0 0.09375)"/>
       <use xlink:href="#DejaVuSans-30" transform="translate(86.279297 -16.3125) scale(0.7)"/>
       <use xlink:href="#DejaVuSans-2d" transform="translate(133.549805 0.09375)"/>
       <use xlink:href="#DejaVuSans-Oblique-4d" transform="translate(169.633789 0.09375)"/>
       <use xlink:href="#DejaVuSans-31" transform="translate(255.913086 -16.3125) scale(0.7)"/>
      </g>
     </g>
    </g>
    <g id="ytick_22">
     <g id="line2d_22">
      <g>
       <use xlink:href="#m3b9747153f" x="58.278125" y="454.379488" style="stroke: #000000; stroke-width: 0.8"/>
      </g>
     </g>
     <g id="text_27">
      <!-- $M_0$-$M_2$ -->
      <g transform="translate(20.878125 457.138863) scale(0.1 -0.1)">
       <use xlink:href="#DejaVuSans-Oblique-4d" transform="translate(0 0.09375)"/>
       <use xlink:href="#DejaVuSans-30" transform="translate(86.279297 -16.3125) scale(0.7)"/>
       <use xlink:href="#DejaVuSans-2d" transform="translate(133.549805 0.09375)"/>
       <use xlink:href="#DejaVuSans-Oblique-4d" transform="translate(169.633789 0.09375)"/>
       <use xlink:href="#DejaVuSans-32" transform="translate(255.913086 -16.3125) scale(0.7)"/>
      </g>
     </g>
    </g>
    <g id="ytick_23">
     <g id="line2d_23">
      <g>
       <use xlink:href="#m3b9747153f" x="58.278125" y="472.073105" style="stroke: #000000; stroke-width: 0.8"/>
      </g>
     </g>
     <g id="text_28">
      <!-- $M_0$-$M_3$ -->
      <g transform="translate(20.878125 474.83248) scale(0.1 -0.1)">
       <use xlink:href="#DejaVuSans-Oblique-4d" transform="translate(0 0.09375)"/>
       <use xlink:href="#DejaVuSans-30" transform="translate(86.279297 -16.3125) scale(0.7)"/>
       <use xlink:href="#DejaVuSans-2d" transform="translate(133.549805 0.09375)"/>
       <use xlink:href="#DejaVuSans-Oblique-4d" transform="translate(169.633789 0.09375)"/>
       <use xlink:href="#DejaVuSans-33" transform="translate(255.913086 -16.3125) scale(0.7)"/>
      </g>
     </g>
    </g>
    <g id="ytick_24">
     <g id="line2d_24">
      <g>
       <use xlink:href="#m3b9747153f" x="58.278125" y="489.766722" style="stroke: #000000; stroke-width: 0.8"/>
      </g>
     </g>
     <g id="text_29">
      <!-- $M_0$-$M_4$ -->
      <g transform="translate(20.878125 492.526097) scale(0.1 -0.1)">
       <use xlink:href="#DejaVuSans-Oblique-4d" transform="translate(0 0.09375)"/>
       <use xlink:href="#DejaVuSans-30" transform="translate(86.279297 -16.3125) scale(0.7)"/>
       <use xlink:href="#DejaVuSans-2d" transform="translate(133.549805 0.09375)"/>
       <use xlink:href="#DejaVuSans-Oblique-4d" transform="translate(169.633789 0.09375)"/>
       <use xlink:href="#DejaVuSans-34" transform="translate(255.913086 -16.3125) scale(0.7)"/>
      </g>
     </g>
    </g>
    <g id="text_30">
     <!-- uLSTM -->
     <g transform="translate(14.798437 488.56998) rotate(-90) scale(0.1 -0.1)">
      <defs>
       <path id="DejaVuSans-75" d="M 544 1381 
L 544 3500 
L 1119 3500 
L 1119 1403 
Q 1119 906 1312 657 
Q 1506 409 1894 409 
Q 2359 409 2629 706 
Q 2900 1003 2900 1516 
L 2900 3500 
L 3475 3500 
L 3475 0 
L 2900 0 
L 2900 538 
Q 2691 219 2414 64 
Q 2138 -91 1772 -91 
Q 1169 -91 856 284 
Q 544 659 544 1381 
z
M 1991 3584 
L 1991 3584 
z
" transform="scale(0.015625)"/>
       <path id="DejaVuSans-53" d="M 3425 4513 
L 3425 3897 
Q 3066 4069 2747 4153 
Q 2428 4238 2131 4238 
Q 1616 4238 1336 4038 
Q 1056 3838 1056 3469 
Q 1056 3159 1242 3001 
Q 1428 2844 1947 2747 
L 2328 2669 
Q 3034 2534 3370 2195 
Q 3706 1856 3706 1288 
Q 3706 609 3251 259 
Q 2797 -91 1919 -91 
Q 1588 -91 1214 -16 
Q 841 59 441 206 
L 441 856 
Q 825 641 1194 531 
Q 1563 422 1919 422 
Q 2459 422 2753 634 
Q 3047 847 3047 1241 
Q 3047 1584 2836 1778 
Q 2625 1972 2144 2069 
L 1759 2144 
Q 1053 2284 737 2584 
Q 422 2884 422 3419 
Q 422 4038 858 4394 
Q 1294 4750 2059 4750 
Q 2388 4750 2728 4690 
Q 3069 4631 3425 4513 
z
" transform="scale(0.015625)"/>
      </defs>
      <use xlink:href="#DejaVuSans-75"/>
      <use xlink:href="#DejaVuSans-4c" x="63.378906"/>
      <use xlink:href="#DejaVuSans-53" x="119.091797"/>
      <use xlink:href="#DejaVuSans-54" x="182.568359"/>
      <use xlink:href="#DejaVuSans-4d" x="243.652344"/>
     </g>
    </g>
   </g>
  </g>
  <g id="axes_7">
   <g id="patch_26">
    <path d="M 58.278125 592.389701 
L 129.052593 592.389701 
L 129.052593 521.615233 
L 58.278125 521.615233 
z
" style="fill: #ffffff"/>
   </g>
   <g id="QuadMesh_7">
    <path d="M 58.278125 521.615233 
L 75.971742 521.615233 
L 75.971742 539.30885 
L 58.278125 539.30885 
L 58.278125 521.615233 
" clip-path="url(#p9a41169806)" style="fill: #fce5db"/>
    <path d="M 75.971742 521.615233 
L 93.665359 521.615233 
L 93.665359 539.30885 
L 75.971742 539.30885 
L 75.971742 521.615233 
" clip-path="url(#p9a41169806)" style="fill: #fcfcfc"/>
    <path d="M 93.665359 521.615233 
L 111.358976 521.615233 
L 111.358976 539.30885 
L 93.665359 539.30885 
L 93.665359 521.615233 
" clip-path="url(#p9a41169806)" style="fill: #fcfcfc"/>
    <path d="M 111.358976 521.615233 
L 129.052593 521.615233 
L 129.052593 539.30885 
L 111.358976 539.30885 
L 111.358976 521.615233 
" clip-path="url(#p9a41169806)" style="fill: #fcfcfc"/>
    <path d="M 58.278125 539.30885 
L 75.971742 539.30885 
L 75.971742 557.002467 
L 58.278125 557.002467 
L 58.278125 539.30885 
" clip-path="url(#p9a41169806)" style="fill: #fcd4c4"/>
    <path d="M 75.971742 539.30885 
L 93.665359 539.30885 
L 93.665359 557.002467 
L 75.971742 557.002467 
L 75.971742 539.30885 
" clip-path="url(#p9a41169806)" style="fill: #fcae93"/>
    <path d="M 93.665359 539.30885 
L 111.358976 539.30885 
L 111.358976 557.002467 
L 93.665359 557.002467 
L 93.665359 539.30885 
" clip-path="url(#p9a41169806)" style="fill: #fc9a7d"/>
    <path d="M 111.358976 539.30885 
L 129.052593 539.30885 
L 129.052593 557.002467 
L 111.358976 557.002467 
L 111.358976 539.30885 
" clip-path="url(#p9a41169806)" style="fill: #fcad92"/>
    <path d="M 58.278125 557.002467 
L 75.971742 557.002467 
L 75.971742 574.696084 
L 58.278125 574.696084 
L 58.278125 557.002467 
" clip-path="url(#p9a41169806)" style="fill: #fc9c80"/>
    <path d="M 75.971742 557.002467 
L 93.665359 557.002467 
L 93.665359 574.696084 
L 75.971742 574.696084 
L 75.971742 557.002467 
" clip-path="url(#p9a41169806)" style="fill: #830b13"/>
    <path d="M 93.665359 557.002467 
L 111.358976 557.002467 
L 111.358976 574.696084 
L 93.665359 574.696084 
L 93.665359 557.002467 
" clip-path="url(#p9a41169806)" style="fill: #830b13"/>
    <path d="M 111.358976 557.002467 
L 129.052593 557.002467 
L 129.052593 574.696084 
L 111.358976 574.696084 
L 111.358976 557.002467 
" clip-path="url(#p9a41169806)" style="fill: #b41d1d"/>
    <path d="M 58.278125 574.696084 
L 75.971742 574.696084 
L 75.971742 592.389701 
L 58.278125 592.389701 
L 58.278125 574.696084 
" clip-path="url(#p9a41169806)" style="fill: #fcfcfc"/>
    <path d="M 75.971742 574.696084 
L 93.665359 574.696084 
L 93.665359 592.389701 
L 75.971742 592.389701 
L 75.971742 574.696084 
" clip-path="url(#p9a41169806)" style="fill: #6b010e"/>
    <path d="M 93.665359 574.696084 
L 111.358976 574.696084 
L 111.358976 592.389701 
L 93.665359 592.389701 
L 93.665359 574.696084 
" clip-path="url(#p9a41169806)" style="fill: #6d020e"/>
    <path d="M 111.358976 574.696084 
L 129.052593 574.696084 
L 129.052593 592.389701 
L 111.358976 592.389701 
L 111.358976 574.696084 
" clip-path="url(#p9a41169806)" style="fill: #6d020e"/>
   </g>
   <g id="patch_27">
    <path d="M 75.971742 521.615233 
L 93.665359 521.615233 
L 93.665359 539.30885 
L 75.971742 539.30885 
L 75.971742 521.615233 
z
" clip-path="url(#p9a41169806)" style="fill: none; stroke: #000000; stroke-linejoin: miter"/>
   </g>
   <g id="patch_28">
    <path d="M 93.665359 539.30885 
L 111.358976 539.30885 
L 111.358976 557.002467 
L 93.665359 557.002467 
L 93.665359 539.30885 
z
" clip-path="url(#p9a41169806)" style="fill: none; stroke: #000000; stroke-linejoin: miter"/>
   </g>
   <g id="patch_29">
    <path d="M 111.358976 557.002467 
L 129.052593 557.002467 
L 129.052593 574.696084 
L 111.358976 574.696084 
L 111.358976 557.002467 
z
" clip-path="url(#p9a41169806)" style="fill: none; stroke: #000000; stroke-linejoin: miter"/>
   </g>
   <g id="matplotlib.axis_13"/>
   <g id="matplotlib.axis_14">
    <g id="ytick_25">
     <g id="line2d_25">
      <g>
       <use xlink:href="#m3b9747153f" x="58.278125" y="521.615233" style="stroke: #000000; stroke-width: 0.8"/>
      </g>
     </g>
     <g id="text_31">
      <!-- $M_0$-$M_1$ -->
      <g transform="translate(20.878125 524.374608) scale(0.1 -0.1)">
       <use xlink:href="#DejaVuSans-Oblique-4d" transform="translate(0 0.09375)"/>
       <use xlink:href="#DejaVuSans-30" transform="translate(86.279297 -16.3125) scale(0.7)"/>
       <use xlink:href="#DejaVuSans-2d" transform="translate(133.549805 0.09375)"/>
       <use xlink:href="#DejaVuSans-Oblique-4d" transform="translate(169.633789 0.09375)"/>
       <use xlink:href="#DejaVuSans-31" transform="translate(255.913086 -16.3125) scale(0.7)"/>
      </g>
     </g>
    </g>
    <g id="ytick_26">
     <g id="line2d_26">
      <g>
       <use xlink:href="#m3b9747153f" x="58.278125" y="539.30885" style="stroke: #000000; stroke-width: 0.8"/>
      </g>
     </g>
     <g id="text_32">
      <!-- $M_0$-$M_2$ -->
      <g transform="translate(20.878125 542.068225) scale(0.1 -0.1)">
       <use xlink:href="#DejaVuSans-Oblique-4d" transform="translate(0 0.09375)"/>
       <use xlink:href="#DejaVuSans-30" transform="translate(86.279297 -16.3125) scale(0.7)"/>
       <use xlink:href="#DejaVuSans-2d" transform="translate(133.549805 0.09375)"/>
       <use xlink:href="#DejaVuSans-Oblique-4d" transform="translate(169.633789 0.09375)"/>
       <use xlink:href="#DejaVuSans-32" transform="translate(255.913086 -16.3125) scale(0.7)"/>
      </g>
     </g>
    </g>
    <g id="ytick_27">
     <g id="line2d_27">
      <g>
       <use xlink:href="#m3b9747153f" x="58.278125" y="557.002467" style="stroke: #000000; stroke-width: 0.8"/>
      </g>
     </g>
     <g id="text_33">
      <!-- $M_0$-$M_3$ -->
      <g transform="translate(20.878125 559.761842) scale(0.1 -0.1)">
       <use xlink:href="#DejaVuSans-Oblique-4d" transform="translate(0 0.09375)"/>
       <use xlink:href="#DejaVuSans-30" transform="translate(86.279297 -16.3125) scale(0.7)"/>
       <use xlink:href="#DejaVuSans-2d" transform="translate(133.549805 0.09375)"/>
       <use xlink:href="#DejaVuSans-Oblique-4d" transform="translate(169.633789 0.09375)"/>
       <use xlink:href="#DejaVuSans-33" transform="translate(255.913086 -16.3125) scale(0.7)"/>
      </g>
     </g>
    </g>
    <g id="ytick_28">
     <g id="line2d_28">
      <g>
       <use xlink:href="#m3b9747153f" x="58.278125" y="574.696084" style="stroke: #000000; stroke-width: 0.8"/>
      </g>
     </g>
     <g id="text_34">
      <!-- $M_0$-$M_4$ -->
      <g transform="translate(20.878125 577.455459) scale(0.1 -0.1)">
       <use xlink:href="#DejaVuSans-Oblique-4d" transform="translate(0 0.09375)"/>
       <use xlink:href="#DejaVuSans-30" transform="translate(86.279297 -16.3125) scale(0.7)"/>
       <use xlink:href="#DejaVuSans-2d" transform="translate(133.549805 0.09375)"/>
       <use xlink:href="#DejaVuSans-Oblique-4d" transform="translate(169.633789 0.09375)"/>
       <use xlink:href="#DejaVuSans-34" transform="translate(255.913086 -16.3125) scale(0.7)"/>
      </g>
     </g>
    </g>
    <g id="text_35">
     <!-- bLSTM -->
     <g transform="translate(14.798437 573.504811) rotate(-90) scale(0.1 -0.1)">
      <defs>
       <path id="DejaVuSans-62" d="M 3116 1747 
Q 3116 2381 2855 2742 
Q 2594 3103 2138 3103 
Q 1681 3103 1420 2742 
Q 1159 2381 1159 1747 
Q 1159 1113 1420 752 
Q 1681 391 2138 391 
Q 2594 391 2855 752 
Q 3116 1113 3116 1747 
z
M 1159 2969 
Q 1341 3281 1617 3432 
Q 1894 3584 2278 3584 
Q 2916 3584 3314 3078 
Q 3713 2572 3713 1747 
Q 3713 922 3314 415 
Q 2916 -91 2278 -91 
Q 1894 -91 1617 61 
Q 1341 213 1159 525 
L 1159 0 
L 581 0 
L 581 4863 
L 1159 4863 
L 1159 2969 
z
" transform="scale(0.015625)"/>
      </defs>
      <use xlink:href="#DejaVuSans-62"/>
      <use xlink:href="#DejaVuSans-4c" x="63.476562"/>
      <use xlink:href="#DejaVuSans-53" x="119.189453"/>
      <use xlink:href="#DejaVuSans-54" x="182.666016"/>
      <use xlink:href="#DejaVuSans-4d" x="243.75"/>
     </g>
    </g>
   </g>
  </g>
  <g id="axes_8">
   <g id="patch_30">
    <path d="M 58.278125 677.319062 
L 129.052593 677.319062 
L 129.052593 606.544594 
L 58.278125 606.544594 
z
" style="fill: #ffffff"/>
   </g>
   <g id="QuadMesh_8">
    <path d="M 58.278125 606.544594 
L 75.971742 606.544594 
L 75.971742 624.238211 
L 58.278125 624.238211 
L 58.278125 606.544594 
" clip-path="url(#p4eefc8bc47)" style="fill: #fcfcfc"/>
    <path d="M 75.971742 606.544594 
L 93.665359 606.544594 
L 93.665359 624.238211 
L 75.971742 624.238211 
L 75.971742 606.544594 
" clip-path="url(#p4eefc8bc47)" style="fill: #fcfcfc"/>
    <path d="M 93.665359 606.544594 
L 111.358976 606.544594 
L 111.358976 624.238211 
L 93.665359 624.238211 
L 93.665359 606.544594 
" clip-path="url(#p4eefc8bc47)" style="fill: #fcfcfc"/>
    <path d="M 111.358976 606.544594 
L 129.052593 606.544594 
L 129.052593 624.238211 
L 111.358976 624.238211 
L 111.358976 606.544594 
" clip-path="url(#p4eefc8bc47)" style="fill: #fcf8f6"/>
    <path d="M 58.278125 624.238211 
L 75.971742 624.238211 
L 75.971742 641.931828 
L 58.278125 641.931828 
L 58.278125 624.238211 
" clip-path="url(#p4eefc8bc47)" style="fill: #fcfcfc"/>
    <path d="M 75.971742 624.238211 
L 93.665359 624.238211 
L 93.665359 641.931828 
L 75.971742 641.931828 
L 75.971742 624.238211 
" clip-path="url(#p4eefc8bc47)" style="fill: #fcaa8f"/>
    <path d="M 93.665359 624.238211 
L 111.358976 624.238211 
L 111.358976 641.931828 
L 93.665359 641.931828 
L 93.665359 624.238211 
" clip-path="url(#p4eefc8bc47)" style="fill: #fca185"/>
    <path d="M 111.358976 624.238211 
L 129.052593 624.238211 
L 129.052593 641.931828 
L 111.358976 641.931828 
L 111.358976 624.238211 
" clip-path="url(#p4eefc8bc47)" style="fill: #fcad92"/>
    <path d="M 58.278125 641.931828 
L 75.971742 641.931828 
L 75.971742 659.625445 
L 58.278125 659.625445 
L 58.278125 641.931828 
" clip-path="url(#p4eefc8bc47)" style="fill: #fcfcfc"/>
    <path d="M 75.971742 641.931828 
L 93.665359 641.931828 
L 93.665359 659.625445 
L 75.971742 659.625445 
L 75.971742 641.931828 
" clip-path="url(#p4eefc8bc47)" style="fill: #e3382c"/>
    <path d="M 93.665359 641.931828 
L 111.358976 641.931828 
L 111.358976 659.625445 
L 93.665359 659.625445 
L 93.665359 641.931828 
" clip-path="url(#p4eefc8bc47)" style="fill: #e73f31"/>
    <path d="M 111.358976 641.931828 
L 129.052593 641.931828 
L 129.052593 659.625445 
L 111.358976 659.625445 
L 111.358976 641.931828 
" clip-path="url(#p4eefc8bc47)" style="fill: #f65f44"/>
    <path d="M 58.278125 659.625445 
L 75.971742 659.625445 
L 75.971742 677.319062 
L 58.278125 677.319062 
L 58.278125 659.625445 
" clip-path="url(#p4eefc8bc47)" style="fill: #fceae2"/>
    <path d="M 75.971742 659.625445 
L 93.665359 659.625445 
L 93.665359 677.319062 
L 75.971742 677.319062 
L 75.971742 659.625445 
" clip-path="url(#p4eefc8bc47)" style="fill: #d32924"/>
    <path d="M 93.665359 659.625445 
L 111.358976 659.625445 
L 111.358976 677.319062 
L 93.665359 677.319062 
L 93.665359 659.625445 
" clip-path="url(#p4eefc8bc47)" style="fill: #ae1b1c"/>
    <path d="M 111.358976 659.625445 
L 129.052593 659.625445 
L 129.052593 677.319062 
L 111.358976 677.319062 
L 111.358976 659.625445 
" clip-path="url(#p4eefc8bc47)" style="fill: #a3171a"/>
   </g>
   <g id="patch_31">
    <path d="M 75.971742 606.544594 
L 93.665359 606.544594 
L 93.665359 624.238211 
L 75.971742 624.238211 
L 75.971742 606.544594 
z
" clip-path="url(#p4eefc8bc47)" style="fill: none; stroke: #000000; stroke-linejoin: miter"/>
   </g>
   <g id="patch_32">
    <path d="M 93.665359 624.238211 
L 111.358976 624.238211 
L 111.358976 641.931828 
L 93.665359 641.931828 
L 93.665359 624.238211 
z
" clip-path="url(#p4eefc8bc47)" style="fill: none; stroke: #000000; stroke-linejoin: miter"/>
   </g>
   <g id="patch_33">
    <path d="M 111.358976 641.931828 
L 129.052593 641.931828 
L 129.052593 659.625445 
L 111.358976 659.625445 
L 111.358976 641.931828 
z
" clip-path="url(#p4eefc8bc47)" style="fill: none; stroke: #000000; stroke-linejoin: miter"/>
   </g>
   <g id="matplotlib.axis_15">
    <g id="xtick_1">
     <g id="line2d_29">
      <defs>
       <path id="m0a580cde6b" d="M 0 0 
L 0 3.5 
" style="stroke: #000000; stroke-width: 0.8"/>
      </defs>
      <g>
       <use xlink:href="#m0a580cde6b" x="58.278125" y="677.319062" style="stroke: #000000; stroke-width: 0.8"/>
      </g>
     </g>
     <g id="text_36">
      <!-- $M_1$ -->
      <g transform="translate(51.578125 691.9175) scale(0.1 -0.1)">
       <use xlink:href="#DejaVuSans-Oblique-4d" transform="translate(0 0.09375)"/>
       <use xlink:href="#DejaVuSans-31" transform="translate(86.279297 -16.3125) scale(0.7)"/>
      </g>
     </g>
    </g>
    <g id="xtick_2">
     <g id="line2d_30">
      <g>
       <use xlink:href="#m0a580cde6b" x="75.971742" y="677.319062" style="stroke: #000000; stroke-width: 0.8"/>
      </g>
     </g>
     <g id="text_37">
      <!-- $M_2$ -->
      <g transform="translate(69.271742 691.9175) scale(0.1 -0.1)">
       <use xlink:href="#DejaVuSans-Oblique-4d" transform="translate(0 0.09375)"/>
       <use xlink:href="#DejaVuSans-32" transform="translate(86.279297 -16.3125) scale(0.7)"/>
      </g>
     </g>
    </g>
    <g id="xtick_3">
     <g id="line2d_31">
      <g>
       <use xlink:href="#m0a580cde6b" x="93.665359" y="677.319062" style="stroke: #000000; stroke-width: 0.8"/>
      </g>
     </g>
     <g id="text_38">
      <!-- $M_3$ -->
      <g transform="translate(86.965359 691.9175) scale(0.1 -0.1)">
       <use xlink:href="#DejaVuSans-Oblique-4d" transform="translate(0 0.09375)"/>
       <use xlink:href="#DejaVuSans-33" transform="translate(86.279297 -16.3125) scale(0.7)"/>
      </g>
     </g>
    </g>
    <g id="xtick_4">
     <g id="line2d_32">
      <g>
       <use xlink:href="#m0a580cde6b" x="111.358976" y="677.319062" style="stroke: #000000; stroke-width: 0.8"/>
      </g>
     </g>
     <g id="text_39">
      <!-- $M_4$ -->
      <g transform="translate(104.658976 691.9175) scale(0.1 -0.1)">
       <use xlink:href="#DejaVuSans-Oblique-4d" transform="translate(0 0.09375)"/>
       <use xlink:href="#DejaVuSans-34" transform="translate(86.279297 -16.3125) scale(0.7)"/>
      </g>
     </g>
    </g>
   </g>
   <g id="matplotlib.axis_16">
    <g id="ytick_29">
     <g id="line2d_33">
      <g>
       <use xlink:href="#m3b9747153f" x="58.278125" y="606.544594" style="stroke: #000000; stroke-width: 0.8"/>
      </g>
     </g>
     <g id="text_40">
      <!-- $M_0$-$M_1$ -->
      <g transform="translate(20.878125 609.303969) scale(0.1 -0.1)">
       <use xlink:href="#DejaVuSans-Oblique-4d" transform="translate(0 0.09375)"/>
       <use xlink:href="#DejaVuSans-30" transform="translate(86.279297 -16.3125) scale(0.7)"/>
       <use xlink:href="#DejaVuSans-2d" transform="translate(133.549805 0.09375)"/>
       <use xlink:href="#DejaVuSans-Oblique-4d" transform="translate(169.633789 0.09375)"/>
       <use xlink:href="#DejaVuSans-31" transform="translate(255.913086 -16.3125) scale(0.7)"/>
      </g>
     </g>
    </g>
    <g id="ytick_30">
     <g id="line2d_34">
      <g>
       <use xlink:href="#m3b9747153f" x="58.278125" y="624.238211" style="stroke: #000000; stroke-width: 0.8"/>
      </g>
     </g>
     <g id="text_41">
      <!-- $M_0$-$M_2$ -->
      <g transform="translate(20.878125 626.997586) scale(0.1 -0.1)">
       <use xlink:href="#DejaVuSans-Oblique-4d" transform="translate(0 0.09375)"/>
       <use xlink:href="#DejaVuSans-30" transform="translate(86.279297 -16.3125) scale(0.7)"/>
       <use xlink:href="#DejaVuSans-2d" transform="translate(133.549805 0.09375)"/>
       <use xlink:href="#DejaVuSans-Oblique-4d" transform="translate(169.633789 0.09375)"/>
       <use xlink:href="#DejaVuSans-32" transform="translate(255.913086 -16.3125) scale(0.7)"/>
      </g>
     </g>
    </g>
    <g id="ytick_31">
     <g id="line2d_35">
      <g>
       <use xlink:href="#m3b9747153f" x="58.278125" y="641.931828" style="stroke: #000000; stroke-width: 0.8"/>
      </g>
     </g>
     <g id="text_42">
      <!-- $M_0$-$M_3$ -->
      <g transform="translate(20.878125 644.691203) scale(0.1 -0.1)">
       <use xlink:href="#DejaVuSans-Oblique-4d" transform="translate(0 0.09375)"/>
       <use xlink:href="#DejaVuSans-30" transform="translate(86.279297 -16.3125) scale(0.7)"/>
       <use xlink:href="#DejaVuSans-2d" transform="translate(133.549805 0.09375)"/>
       <use xlink:href="#DejaVuSans-Oblique-4d" transform="translate(169.633789 0.09375)"/>
       <use xlink:href="#DejaVuSans-33" transform="translate(255.913086 -16.3125) scale(0.7)"/>
      </g>
     </g>
    </g>
    <g id="ytick_32">
     <g id="line2d_36">
      <g>
       <use xlink:href="#m3b9747153f" x="58.278125" y="659.625445" style="stroke: #000000; stroke-width: 0.8"/>
      </g>
     </g>
     <g id="text_43">
      <!-- $M_0$-$M_4$ -->
      <g transform="translate(20.878125 662.38482) scale(0.1 -0.1)">
       <use xlink:href="#DejaVuSans-Oblique-4d" transform="translate(0 0.09375)"/>
       <use xlink:href="#DejaVuSans-30" transform="translate(86.279297 -16.3125) scale(0.7)"/>
       <use xlink:href="#DejaVuSans-2d" transform="translate(133.549805 0.09375)"/>
       <use xlink:href="#DejaVuSans-Oblique-4d" transform="translate(169.633789 0.09375)"/>
       <use xlink:href="#DejaVuSans-34" transform="translate(255.913086 -16.3125) scale(0.7)"/>
      </g>
     </g>
    </g>
    <g id="text_44">
     <!-- Transformer -->
     <g transform="translate(14.798437 671.931047) rotate(-90) scale(0.1 -0.1)">
      <defs>
       <path id="DejaVuSans-73" d="M 2834 3397 
L 2834 2853 
Q 2591 2978 2328 3040 
Q 2066 3103 1784 3103 
Q 1356 3103 1142 2972 
Q 928 2841 928 2578 
Q 928 2378 1081 2264 
Q 1234 2150 1697 2047 
L 1894 2003 
Q 2506 1872 2764 1633 
Q 3022 1394 3022 966 
Q 3022 478 2636 193 
Q 2250 -91 1575 -91 
Q 1294 -91 989 -36 
Q 684 19 347 128 
L 347 722 
Q 666 556 975 473 
Q 1284 391 1588 391 
Q 1994 391 2212 530 
Q 2431 669 2431 922 
Q 2431 1156 2273 1281 
Q 2116 1406 1581 1522 
L 1381 1569 
Q 847 1681 609 1914 
Q 372 2147 372 2553 
Q 372 3047 722 3315 
Q 1072 3584 1716 3584 
Q 2034 3584 2315 3537 
Q 2597 3491 2834 3397 
z
" transform="scale(0.015625)"/>
       <path id="DejaVuSans-66" d="M 2375 4863 
L 2375 4384 
L 1825 4384 
Q 1516 4384 1395 4259 
Q 1275 4134 1275 3809 
L 1275 3500 
L 2222 3500 
L 2222 3053 
L 1275 3053 
L 1275 0 
L 697 0 
L 697 3053 
L 147 3053 
L 147 3500 
L 697 3500 
L 697 3744 
Q 697 4328 969 4595 
Q 1241 4863 1831 4863 
L 2375 4863 
z
" transform="scale(0.015625)"/>
       <path id="DejaVuSans-6f" d="M 1959 3097 
Q 1497 3097 1228 2736 
Q 959 2375 959 1747 
Q 959 1119 1226 758 
Q 1494 397 1959 397 
Q 2419 397 2687 759 
Q 2956 1122 2956 1747 
Q 2956 2369 2687 2733 
Q 2419 3097 1959 3097 
z
M 1959 3584 
Q 2709 3584 3137 3096 
Q 3566 2609 3566 1747 
Q 3566 888 3137 398 
Q 2709 -91 1959 -91 
Q 1206 -91 779 398 
Q 353 888 353 1747 
Q 353 2609 779 3096 
Q 1206 3584 1959 3584 
z
" transform="scale(0.015625)"/>
       <path id="DejaVuSans-6d" d="M 3328 2828 
Q 3544 3216 3844 3400 
Q 4144 3584 4550 3584 
Q 5097 3584 5394 3201 
Q 5691 2819 5691 2113 
L 5691 0 
L 5113 0 
L 5113 2094 
Q 5113 2597 4934 2840 
Q 4756 3084 4391 3084 
Q 3944 3084 3684 2787 
Q 3425 2491 3425 1978 
L 3425 0 
L 2847 0 
L 2847 2094 
Q 2847 2600 2669 2842 
Q 2491 3084 2119 3084 
Q 1678 3084 1418 2786 
Q 1159 2488 1159 1978 
L 1159 0 
L 581 0 
L 581 3500 
L 1159 3500 
L 1159 2956 
Q 1356 3278 1631 3431 
Q 1906 3584 2284 3584 
Q 2666 3584 2933 3390 
Q 3200 3197 3328 2828 
z
" transform="scale(0.015625)"/>
      </defs>
      <use xlink:href="#DejaVuSans-54"/>
      <use xlink:href="#DejaVuSans-72" x="46.333984"/>
      <use xlink:href="#DejaVuSans-61" x="87.447266"/>
      <use xlink:href="#DejaVuSans-6e" x="148.726562"/>
      <use xlink:href="#DejaVuSans-73" x="212.105469"/>
      <use xlink:href="#DejaVuSans-66" x="264.205078"/>
      <use xlink:href="#DejaVuSans-6f" x="299.410156"/>
      <use xlink:href="#DejaVuSans-72" x="360.591797"/>
      <use xlink:href="#DejaVuSans-6d" x="399.955078"/>
      <use xlink:href="#DejaVuSans-65" x="497.367188"/>
      <use xlink:href="#DejaVuSans-72" x="558.890625"/>
     </g>
    </g>
   </g>
  </g>
 </g>
 <defs>
  <clipPath id="p9d6344b4b7">
   <rect x="58.278125" y="12.039062" width="70.774468" height="70.774468"/>
  </clipPath>
  <clipPath id="pd1205754a4">
   <rect x="58.278125" y="96.968424" width="70.774468" height="70.774468"/>
  </clipPath>
  <clipPath id="pf83c41f920">
   <rect x="58.278125" y="181.897786" width="70.774468" height="70.774468"/>
  </clipPath>
  <clipPath id="p044f1c1a35">
   <rect x="58.278125" y="266.827148" width="70.774468" height="70.774468"/>
  </clipPath>
  <clipPath id="pb621c74d2d">
   <rect x="58.278125" y="351.756509" width="70.774468" height="70.774468"/>
  </clipPath>
  <clipPath id="pee41c235b1">
   <rect x="58.278125" y="436.685871" width="70.774468" height="70.774468"/>
  </clipPath>
  <clipPath id="p9a41169806">
   <rect x="58.278125" y="521.615233" width="70.774468" height="70.774468"/>
  </clipPath>
  <clipPath id="p4eefc8bc47">
   <rect x="58.278125" y="606.544594" width="70.774468" height="70.774468"/>
  </clipPath>
 </defs>
</svg>
