<?xml version="1.0" encoding="utf-8" standalone="no"?>
<!DOCTYPE svg PUBLIC "-//W3C//DTD SVG 1.1//EN"
  "http://www.w3.org/Graphics/SVG/1.1/DTD/svg11.dtd">
<svg xmlns:xlink="http://www.w3.org/1999/xlink" width="576pt" height="864pt" viewBox="0 0 576 864" xmlns="http://www.w3.org/2000/svg" version="1.1">
 <metadata>
  <rdf:RDF xmlns:dc="http://purl.org/dc/elements/1.1/" xmlns:cc="http://creativecommons.org/ns#" xmlns:rdf="http://www.w3.org/1999/02/22-rdf-syntax-ns#">
   <cc:Work>
    <dc:type rdf:resource="http://purl.org/dc/dcmitype/StillImage"/>
    <dc:date>2025-01-12T16:20:44.777756</dc:date>
    <dc:format>image/svg+xml</dc:format>
    <dc:creator>
     <cc:Agent>
      <dc:title>Matplotlib v3.9.2, https://matplotlib.org/</dc:title>
     </cc:Agent>
    </dc:creator>
   </cc:Work>
  </rdf:RDF>
 </metadata>
 <defs>
  <style type="text/css">*{stroke-linejoin: round; stroke-linecap: butt}</style>
 </defs>
 <g id="figure_1">
  <g id="patch_1">
   <path d="M 0 864 
L 576 864 
L 576 0 
L 0 0 
z
" style="fill: #ffffff"/>
  </g>
  <g id="axes_1">
   <g id="patch_2">
    <path d="M 109.2 234.127059 
L 165 234.127059 
L 165 201.515294 
L 109.2 201.515294 
z
" clip-path="url(#p625c707bb6)" style="fill: #add8e6; stroke: #000000; stroke-width: 2.5; stroke-linejoin: miter"/>
   </g>
   <g id="patch_3">
    <path d="M 192.9 234.127059 
L 248.7 234.127059 
L 248.7 201.515294 
L 192.9 201.515294 
z
" clip-path="url(#p625c707bb6)" style="fill: #add8e6; stroke: #000000; stroke-width: 2.5; stroke-linejoin: miter"/>
   </g>
   <g id="patch_4">
    <path d="M 276.6 234.127059 
L 332.4 234.127059 
L 332.4 201.515294 
L 276.6 201.515294 
z
" clip-path="url(#p625c707bb6)" style="fill: #add8e6; stroke: #000000; stroke-width: 2.5; stroke-linejoin: miter"/>
   </g>
   <g id="patch_5">
    <path d="M 360.3 234.127059 
L 416.1 234.127059 
L 416.1 201.515294 
L 360.3 201.515294 
z
" clip-path="url(#p625c707bb6)" style="fill: #add8e6; stroke: #000000; stroke-width: 2.5; stroke-linejoin: miter"/>
   </g>
   <g id="patch_6">
    <path d="M 444 234.127059 
L 499.8 234.127059 
L 499.8 201.515294 
L 444 201.515294 
z
" clip-path="url(#p625c707bb6)" style="fill: #add8e6; stroke: #000000; stroke-width: 2.5; stroke-linejoin: miter"/>
   </g>
  </g>
  <g id="axes_2">
   <g id="patch_7">
    <path d="M 109.2 468.931765 
L 165 468.931765 
L 165 436.32 
L 109.2 436.32 
z
" clip-path="url(#p480f29ef71)" style="fill: #add8e6; stroke: #000000; stroke-width: 2.5; stroke-linejoin: miter"/>
   </g>
   <g id="patch_8">
    <path d="M 192.9 468.931765 
L 248.7 468.931765 
L 248.7 436.32 
L 192.9 436.32 
z
" clip-path="url(#p480f29ef71)" style="fill: #add8e6; stroke: #000000; stroke-width: 2.5; stroke-linejoin: miter"/>
   </g>
   <g id="patch_9">
    <path d="M 276.6 468.931765 
L 332.4 468.931765 
L 332.4 436.32 
L 276.6 436.32 
z
" clip-path="url(#p480f29ef71)" style="fill: #add8e6; stroke: #000000; stroke-width: 2.5; stroke-linejoin: miter"/>
   </g>
   <g id="patch_10">
    <path d="M 360.3 468.931765 
L 416.1 468.931765 
L 416.1 436.32 
L 360.3 436.32 
z
" clip-path="url(#p480f29ef71)" style="fill: #add8e6; stroke: #000000; stroke-width: 2.5; stroke-linejoin: miter"/>
   </g>
   <g id="patch_11">
    <path d="M 444 468.931765 
L 499.8 468.931765 
L 499.8 436.32 
L 444 436.32 
z
" clip-path="url(#p480f29ef71)" style="fill: #add8e6; stroke: #000000; stroke-width: 2.5; stroke-linejoin: miter"/>
   </g>
   <g id="patch_12">
    <path d="M 137.1 468.931765 
C 137.1 477.577625 141.512194 485.878218 149.357581 491.991765 
C 157.202969 498.105311 167.854947 501.543529 178.95 501.543529 
C 190.045053 501.543529 200.697031 498.105311 208.542419 491.991765 
C 216.387806 485.878218 220.8 477.577625 220.8 468.931765 
" clip-path="url(#p480f29ef71)" style="fill: none; stroke: #808080; stroke-width: 2; stroke-linejoin: miter"/>
   </g>
   <g id="patch_13">
    <path d="M 304.5 436.32 
C 304.5 427.674139 295.675612 419.373547 279.984838 413.26 
C 264.294063 407.146453 242.990107 403.708235 220.8 403.708235 
C 198.609893 403.708235 177.305937 407.146453 161.615162 413.26 
C 145.924388 419.373547 137.1 427.674139 137.1 436.32 
" clip-path="url(#p480f29ef71)" style="fill: none; stroke: #808080; stroke-width: 2; stroke-linejoin: miter"/>
   </g>
   <g id="patch_14">
    <path d="M 137.1 468.931765 
C 137.1 477.577625 141.512194 485.878218 149.357581 491.991765 
C 157.202969 498.105311 167.854947 501.543529 178.95 501.543529 
C 190.045053 501.543529 200.697031 498.105311 208.542419 491.991765 
C 216.387806 485.878218 220.8 477.577625 220.8 468.931765 
" clip-path="url(#p480f29ef71)" style="fill: none; stroke: #808080; stroke-width: 2; stroke-linejoin: miter"/>
   </g>
   <g id="patch_15">
    <path d="M 220.8 468.931765 
C 220.8 477.577625 225.212194 485.878218 233.057581 491.991765 
C 240.902969 498.105311 251.554947 501.543529 262.65 501.543529 
C 273.745053 501.543529 284.397031 498.105311 292.242419 491.991765 
C 300.087806 485.878218 304.5 477.577625 304.5 468.931765 
" clip-path="url(#p480f29ef71)" style="fill: none; stroke: #808080; stroke-width: 2; stroke-linejoin: miter"/>
   </g>
   <g id="patch_16">
    <path d="M 304.5 436.32 
C 304.5 427.674139 295.675612 419.373547 279.984838 413.26 
C 264.294063 407.146453 242.990107 403.708235 220.8 403.708235 
C 198.609893 403.708235 177.305937 407.146453 161.615162 413.26 
C 145.924388 419.373547 137.1 427.674139 137.1 436.32 
" clip-path="url(#p480f29ef71)" style="fill: none; stroke: #808080; stroke-width: 2; stroke-linejoin: miter"/>
   </g>
   <g id="patch_17">
    <path d="M 220.8 468.931765 
C 220.8 477.577625 225.212194 485.878218 233.057581 491.991765 
C 240.902969 498.105311 251.554947 501.543529 262.65 501.543529 
C 273.745053 501.543529 284.397031 498.105311 292.242419 491.991765 
C 300.087806 485.878218 304.5 477.577625 304.5 468.931765 
" clip-path="url(#p480f29ef71)" style="fill: none; stroke: #808080; stroke-width: 2; stroke-linejoin: miter"/>
   </g>
   <g id="patch_18">
    <path d="M 137.1 468.931765 
C 137.1 477.577625 150.336581 485.878218 173.872744 491.991765 
C 197.408906 498.105311 229.36484 501.543529 262.65 501.543529 
C 295.93516 501.543529 327.891094 498.105311 351.427256 491.991765 
C 374.963419 485.878218 388.2 477.577625 388.2 468.931765 
" clip-path="url(#p480f29ef71)" style="fill: none; stroke: #808080; stroke-width: 2; stroke-linejoin: miter"/>
   </g>
   <g id="patch_19">
    <path d="M 388.2 436.32 
C 388.2 427.674139 379.375612 419.373547 363.684838 413.26 
C 347.994063 407.146453 326.690107 403.708235 304.5 403.708235 
C 282.309893 403.708235 261.005937 407.146453 245.315162 413.26 
C 229.624388 419.373547 220.8 427.674139 220.8 436.32 
" clip-path="url(#p480f29ef71)" style="fill: none; stroke: #808080; stroke-width: 2; stroke-linejoin: miter"/>
   </g>
   <g id="patch_20">
    <path d="M 471.9 436.32 
C 471.9 427.674139 454.251225 419.373547 422.869675 413.26 
C 391.488126 407.146453 348.880213 403.708235 304.5 403.708235 
C 260.119787 403.708235 217.511874 407.146453 186.130325 413.26 
C 154.748775 419.373547 137.1 427.674139 137.1 436.32 
" clip-path="url(#p480f29ef71)" style="fill: none; stroke: #808080; stroke-width: 2; stroke-linejoin: miter"/>
   </g>
   <g id="patch_21">
    <path d="M 220.8 468.931765 
C 220.8 477.577625 234.036581 485.878218 257.572744 491.991765 
C 281.108906 498.105311 313.06484 501.543529 346.35 501.543529 
C 379.63516 501.543529 411.591094 498.105311 435.127256 491.991765 
C 458.663419 485.878218 471.9 477.577625 471.9 468.931765 
" clip-path="url(#p480f29ef71)" style="fill: none; stroke: #808080; stroke-width: 2; stroke-linejoin: miter"/>
   </g>
  </g>
  <g id="axes_3">
   <g id="patch_22">
    <path d="M 109.2 703.736471 
L 165 703.736471 
L 165 671.124706 
L 109.2 671.124706 
z
" clip-path="url(#pab6128d70d)" style="fill: #add8e6; stroke: #000000; stroke-width: 2.5; stroke-linejoin: miter"/>
   </g>
   <g id="patch_23">
    <path d="M 192.9 703.736471 
L 248.7 703.736471 
L 248.7 671.124706 
L 192.9 671.124706 
z
" clip-path="url(#pab6128d70d)" style="fill: #add8e6; stroke: #000000; stroke-width: 2.5; stroke-linejoin: miter"/>
   </g>
   <g id="patch_24">
    <path d="M 276.6 703.736471 
L 332.4 703.736471 
L 332.4 671.124706 
L 276.6 671.124706 
z
" clip-path="url(#pab6128d70d)" style="fill: #add8e6; stroke: #000000; stroke-width: 2.5; stroke-linejoin: miter"/>
   </g>
   <g id="patch_25">
    <path d="M 360.3 703.736471 
L 416.1 703.736471 
L 416.1 671.124706 
L 360.3 671.124706 
z
" clip-path="url(#pab6128d70d)" style="fill: #add8e6; stroke: #000000; stroke-width: 2.5; stroke-linejoin: miter"/>
   </g>
   <g id="patch_26">
    <path d="M 444 703.736471 
L 499.8 703.736471 
L 499.8 671.124706 
L 444 671.124706 
z
" clip-path="url(#pab6128d70d)" style="fill: #add8e6; stroke: #000000; stroke-width: 2.5; stroke-linejoin: miter"/>
   </g>
   <g id="patch_27">
    <path d="M 137.1 703.736471 
C 137.1 712.382331 141.512194 720.682924 149.357581 726.796471 
C 157.202969 732.910017 167.854947 736.348235 178.95 736.348235 
C 190.045053 736.348235 200.697031 732.910017 208.542419 726.796471 
C 216.387806 720.682924 220.8 712.382331 220.8 703.736471 
" clip-path="url(#pab6128d70d)" style="fill: none; stroke: #808080; stroke-width: 2; stroke-linejoin: miter"/>
   </g>
   <g id="patch_28">
    <path d="M 304.5 671.124706 
C 304.5 662.478845 295.675612 654.178253 279.984838 648.064706 
C 264.294063 641.951159 242.990107 638.512941 220.8 638.512941 
C 198.609893 638.512941 177.305937 641.951159 161.615162 648.064706 
C 145.924388 654.178253 137.1 662.478845 137.1 671.124706 
" clip-path="url(#pab6128d70d)" style="fill: none; stroke: #808080; stroke-width: 2; stroke-linejoin: miter"/>
   </g>
   <g id="patch_29">
    <path d="M 137.1 703.736471 
C 137.1 712.382331 150.336581 720.682924 173.872744 726.796471 
C 197.408906 732.910017 229.36484 736.348235 262.65 736.348235 
C 295.93516 736.348235 327.891094 732.910017 351.427256 726.796471 
C 374.963419 720.682924 388.2 712.382331 388.2 703.736471 
" clip-path="url(#pab6128d70d)" style="fill: none; stroke: #808080; stroke-width: 2; stroke-linejoin: miter"/>
   </g>
   <g id="patch_30">
    <path d="M 471.9 671.124706 
C 471.9 662.478845 454.251225 654.178253 422.869675 648.064706 
C 391.488126 641.951159 348.880213 638.512941 304.5 638.512941 
C 260.119787 638.512941 217.511874 641.951159 186.130325 648.064706 
C 154.748775 654.178253 137.1 662.478845 137.1 671.124706 
" clip-path="url(#pab6128d70d)" style="fill: none; stroke: #808080; stroke-width: 2; stroke-linejoin: miter"/>
   </g>
   <g id="patch_31">
    <path d="M 137.1 703.736471 
C 137.1 712.382331 141.512194 720.682924 149.357581 726.796471 
C 157.202969 732.910017 167.854947 736.348235 178.95 736.348235 
C 190.045053 736.348235 200.697031 732.910017 208.542419 726.796471 
C 216.387806 720.682924 220.8 712.382331 220.8 703.736471 
" clip-path="url(#pab6128d70d)" style="fill: none; stroke: #808080; stroke-width: 2; stroke-linejoin: miter"/>
   </g>
   <g id="patch_32">
    <path d="M 220.8 703.736471 
C 220.8 712.382331 225.212194 720.682924 233.057581 726.796471 
C 240.902969 732.910017 251.554947 736.348235 262.65 736.348235 
C 273.745053 736.348235 284.397031 732.910017 292.242419 726.796471 
C 300.087806 720.682924 304.5 712.382331 304.5 703.736471 
" clip-path="url(#pab6128d70d)" style="fill: none; stroke: #808080; stroke-width: 2; stroke-linejoin: miter"/>
   </g>
   <g id="patch_33">
    <path d="M 388.2 671.124706 
C 388.2 662.478845 379.375612 654.178253 363.684838 648.064706 
C 347.994063 641.951159 326.690107 638.512941 304.5 638.512941 
C 282.309893 638.512941 261.005937 641.951159 245.315162 648.064706 
C 229.624388 654.178253 220.8 662.478845 220.8 671.124706 
" clip-path="url(#pab6128d70d)" style="fill: none; stroke: #808080; stroke-width: 2; stroke-linejoin: miter"/>
   </g>
   <g id="patch_34">
    <path d="M 220.8 703.736471 
C 220.8 712.382331 234.036581 720.682924 257.572744 726.796471 
C 281.108906 732.910017 313.06484 736.348235 346.35 736.348235 
C 379.63516 736.348235 411.591094 732.910017 435.127256 726.796471 
C 458.663419 720.682924 471.9 712.382331 471.9 703.736471 
" clip-path="url(#pab6128d70d)" style="fill: none; stroke: #808080; stroke-width: 2; stroke-linejoin: miter"/>
   </g>
   <g id="patch_35">
    <path d="M 304.5 671.124706 
C 304.5 662.478845 295.675612 654.178253 279.984838 648.064706 
C 264.294063 641.951159 242.990107 638.512941 220.8 638.512941 
C 198.609893 638.512941 177.305937 641.951159 161.615162 648.064706 
C 145.924388 654.178253 137.1 662.478845 137.1 671.124706 
" clip-path="url(#pab6128d70d)" style="fill: none; stroke: #808080; stroke-width: 2; stroke-linejoin: miter"/>
   </g>
   <g id="patch_36">
    <path d="M 220.8 703.736471 
C 220.8 712.382331 225.212194 720.682924 233.057581 726.796471 
C 240.902969 732.910017 251.554947 736.348235 262.65 736.348235 
C 273.745053 736.348235 284.397031 732.910017 292.242419 726.796471 
C 300.087806 720.682924 304.5 712.382331 304.5 703.736471 
" clip-path="url(#pab6128d70d)" style="fill: none; stroke: #808080; stroke-width: 2; stroke-linejoin: miter"/>
   </g>
   <g id="patch_37">
    <path d="M 304.5 703.736471 
C 304.5 712.382331 308.912194 720.682924 316.757581 726.796471 
C 324.602969 732.910017 335.254947 736.348235 346.35 736.348235 
C 357.445053 736.348235 368.097031 732.910017 375.942419 726.796471 
C 383.787806 720.682924 388.2 712.382331 388.2 703.736471 
" clip-path="url(#pab6128d70d)" style="fill: none; stroke: #808080; stroke-width: 2; stroke-linejoin: miter"/>
   </g>
   <g id="patch_38">
    <path d="M 471.9 671.124706 
C 471.9 662.478845 463.075612 654.178253 447.384838 648.064706 
C 431.694063 641.951159 410.390107 638.512941 388.2 638.512941 
C 366.009893 638.512941 344.705937 641.951159 329.015162 648.064706 
C 313.324388 654.178253 304.5 662.478845 304.5 671.124706 
" clip-path="url(#pab6128d70d)" style="fill: none; stroke: #808080; stroke-width: 2; stroke-linejoin: miter"/>
   </g>
   <g id="patch_39">
    <path d="M 137.1 703.736471 
C 137.1 712.382331 150.336581 720.682924 173.872744 726.796471 
C 197.408906 732.910017 229.36484 736.348235 262.65 736.348235 
C 295.93516 736.348235 327.891094 732.910017 351.427256 726.796471 
C 374.963419 720.682924 388.2 712.382331 388.2 703.736471 
" clip-path="url(#pab6128d70d)" style="fill: none; stroke: #808080; stroke-width: 2; stroke-linejoin: miter"/>
   </g>
   <g id="patch_40">
    <path d="M 388.2 671.124706 
C 388.2 662.478845 379.375612 654.178253 363.684838 648.064706 
C 347.994063 641.951159 326.690107 638.512941 304.5 638.512941 
C 282.309893 638.512941 261.005937 641.951159 245.315162 648.064706 
C 229.624388 654.178253 220.8 662.478845 220.8 671.124706 
" clip-path="url(#pab6128d70d)" style="fill: none; stroke: #808080; stroke-width: 2; stroke-linejoin: miter"/>
   </g>
   <g id="patch_41">
    <path d="M 304.5 703.736471 
C 304.5 712.382331 308.912194 720.682924 316.757581 726.796471 
C 324.602969 732.910017 335.254947 736.348235 346.35 736.348235 
C 357.445053 736.348235 368.097031 732.910017 375.942419 726.796471 
C 383.787806 720.682924 388.2 712.382331 388.2 703.736471 
" clip-path="url(#pab6128d70d)" style="fill: none; stroke: #808080; stroke-width: 2; stroke-linejoin: miter"/>
   </g>
   <g id="patch_42">
    <path d="M 388.2 703.736471 
C 388.2 712.382331 392.612194 720.682924 400.457581 726.796471 
C 408.302969 732.910017 418.954947 736.348235 430.05 736.348235 
C 441.145053 736.348235 451.797031 732.910017 459.642419 726.796471 
C 467.487806 720.682924 471.9 712.382331 471.9 703.736471 
" clip-path="url(#pab6128d70d)" style="fill: none; stroke: #808080; stroke-width: 2; stroke-linejoin: miter"/>
   </g>
   <g id="patch_43">
    <path d="M 471.9 671.124706 
C 471.9 662.478845 454.251225 654.178253 422.869675 648.064706 
C 391.488126 641.951159 348.880213 638.512941 304.5 638.512941 
C 260.119787 638.512941 217.511874 641.951159 186.130325 648.064706 
C 154.748775 654.178253 137.1 662.478845 137.1 671.124706 
" clip-path="url(#pab6128d70d)" style="fill: none; stroke: #808080; stroke-width: 2; stroke-linejoin: miter"/>
   </g>
   <g id="patch_44">
    <path d="M 220.8 703.736471 
C 220.8 712.382331 234.036581 720.682924 257.572744 726.796471 
C 281.108906 732.910017 313.06484 736.348235 346.35 736.348235 
C 379.63516 736.348235 411.591094 732.910017 435.127256 726.796471 
C 458.663419 720.682924 471.9 712.382331 471.9 703.736471 
" clip-path="url(#pab6128d70d)" style="fill: none; stroke: #808080; stroke-width: 2; stroke-linejoin: miter"/>
   </g>
   <g id="patch_45">
    <path d="M 471.9 671.124706 
C 471.9 662.478845 463.075612 654.178253 447.384838 648.064706 
C 431.694063 641.951159 410.390107 638.512941 388.2 638.512941 
C 366.009893 638.512941 344.705937 641.951159 329.015162 648.064706 
C 313.324388 654.178253 304.5 662.478845 304.5 671.124706 
" clip-path="url(#pab6128d70d)" style="fill: none; stroke: #808080; stroke-width: 2; stroke-linejoin: miter"/>
   </g>
   <g id="patch_46">
    <path d="M 388.2 703.736471 
C 388.2 712.382331 392.612194 720.682924 400.457581 726.796471 
C 408.302969 732.910017 418.954947 736.348235 430.05 736.348235 
C 441.145053 736.348235 451.797031 732.910017 459.642419 726.796471 
C 467.487806 720.682924 471.9 712.382331 471.9 703.736471 
" clip-path="url(#pab6128d70d)" style="fill: none; stroke: #808080; stroke-width: 2; stroke-linejoin: miter"/>
   </g>
  </g>
 </g>
 <defs>
  <clipPath id="p625c707bb6">
   <rect x="72" y="103.68" width="446.4" height="195.670588"/>
  </clipPath>
  <clipPath id="p480f29ef71">
   <rect x="72" y="338.484706" width="446.4" height="195.670588"/>
  </clipPath>
  <clipPath id="pab6128d70d">
   <rect x="72" y="573.289412" width="446.4" height="195.670588"/>
  </clipPath>
 </defs>
</svg>
